<mxfile host="app.diagrams.net" modified="2024-06-02T00:12:38.670Z" agent="Mozilla/5.0 (Windows NT 10.0; Win64; x64) AppleWebKit/537.36 (KHTML, like Gecko) Chrome/124.0.0.0 Safari/537.36" etag="q2f3inPIDIZ6r4K_6FnK" version="24.4.13" type="device" pages="15">
  <diagram name="Page-1" id="hOlONdjcOgzlcfBIpCuM">
    <mxGraphModel dx="1434" dy="772" grid="1" gridSize="10" guides="1" tooltips="1" connect="1" arrows="1" fold="1" page="1" pageScale="1" pageWidth="850" pageHeight="1100" math="0" shadow="0">
      <root>
        <mxCell id="0" />
        <mxCell id="1" parent="0" />
        <mxCell id="eK-SLbAcp5yfGDk_VgoB-3" value="Desktop Home Page" style="text;strokeColor=none;align=center;fillColor=none;html=1;verticalAlign=middle;whiteSpace=wrap;rounded=0;" vertex="1" parent="1">
          <mxGeometry x="340" y="10" width="240" height="40" as="geometry" />
        </mxCell>
        <mxCell id="eK-SLbAcp5yfGDk_VgoB-4" value="" style="rounded=0;whiteSpace=wrap;html=1;" vertex="1" parent="1">
          <mxGeometry x="10" y="70" width="840" height="220" as="geometry" />
        </mxCell>
        <mxCell id="eK-SLbAcp5yfGDk_VgoB-5" value="LOGO" style="text;strokeColor=none;align=center;fillColor=none;html=1;verticalAlign=middle;whiteSpace=wrap;rounded=0;" vertex="1" parent="1">
          <mxGeometry x="100" y="130" width="60" height="30" as="geometry" />
        </mxCell>
        <mxCell id="eK-SLbAcp5yfGDk_VgoB-6" value="" style="whiteSpace=wrap;html=1;aspect=fixed;" vertex="1" parent="1">
          <mxGeometry x="80" y="100" width="100" height="100" as="geometry" />
        </mxCell>
        <mxCell id="eK-SLbAcp5yfGDk_VgoB-7" value="Imaginative Computer Services" style="text;strokeColor=none;align=center;fillColor=none;html=1;verticalAlign=middle;whiteSpace=wrap;rounded=0;" vertex="1" parent="1">
          <mxGeometry x="50" y="240" width="210" height="30" as="geometry" />
        </mxCell>
        <mxCell id="eK-SLbAcp5yfGDk_VgoB-8" value="Home&amp;nbsp; About Services Blog Contact" style="text;strokeColor=none;align=center;fillColor=none;html=1;verticalAlign=middle;whiteSpace=wrap;rounded=0;" vertex="1" parent="1">
          <mxGeometry x="410" y="240" width="520" height="30" as="geometry" />
        </mxCell>
        <mxCell id="eK-SLbAcp5yfGDk_VgoB-9" value="LOGO" style="text;strokeColor=none;align=center;fillColor=none;html=1;verticalAlign=middle;whiteSpace=wrap;rounded=0;" vertex="1" parent="1">
          <mxGeometry x="100" y="135" width="60" height="30" as="geometry" />
        </mxCell>
        <mxCell id="eK-SLbAcp5yfGDk_VgoB-10" value="" style="rounded=0;whiteSpace=wrap;html=1;" vertex="1" parent="1">
          <mxGeometry x="10" y="310" width="840" height="350" as="geometry" />
        </mxCell>
        <mxCell id="eK-SLbAcp5yfGDk_VgoB-11" value="Feature image in this box" style="text;strokeColor=none;align=center;fillColor=none;html=1;verticalAlign=middle;whiteSpace=wrap;rounded=0;" vertex="1" parent="1">
          <mxGeometry x="350" y="330" width="150" height="30" as="geometry" />
        </mxCell>
        <mxCell id="eK-SLbAcp5yfGDk_VgoB-12" value="Imaginative Computer services&amp;nbsp;" style="text;strokeColor=none;align=center;fillColor=none;html=1;verticalAlign=middle;whiteSpace=wrap;rounded=0;" vertex="1" parent="1">
          <mxGeometry x="320" y="420" width="220" height="110" as="geometry" />
        </mxCell>
        <mxCell id="eK-SLbAcp5yfGDk_VgoB-13" value="" style="rounded=0;whiteSpace=wrap;html=1;" vertex="1" parent="1">
          <mxGeometry x="10" y="680" width="840" height="220" as="geometry" />
        </mxCell>
        <mxCell id="eK-SLbAcp5yfGDk_VgoB-14" value="Write up about self and services" style="text;strokeColor=none;align=center;fillColor=none;html=1;verticalAlign=middle;whiteSpace=wrap;rounded=0;" vertex="1" parent="1">
          <mxGeometry x="320" y="760" width="210" height="30" as="geometry" />
        </mxCell>
        <mxCell id="eK-SLbAcp5yfGDk_VgoB-15" value="" style="rounded=0;whiteSpace=wrap;html=1;" vertex="1" parent="1">
          <mxGeometry x="10" y="920" width="840" height="160" as="geometry" />
        </mxCell>
        <mxCell id="eK-SLbAcp5yfGDk_VgoB-16" value="" style="whiteSpace=wrap;html=1;aspect=fixed;" vertex="1" parent="1">
          <mxGeometry x="30" y="930" width="50" height="50" as="geometry" />
        </mxCell>
        <mxCell id="eK-SLbAcp5yfGDk_VgoB-17" value="" style="whiteSpace=wrap;html=1;aspect=fixed;" vertex="1" parent="1">
          <mxGeometry x="380" y="930" width="50" height="50" as="geometry" />
        </mxCell>
        <mxCell id="eK-SLbAcp5yfGDk_VgoB-18" value="" style="whiteSpace=wrap;html=1;aspect=fixed;" vertex="1" parent="1">
          <mxGeometry x="760" y="920" width="60" height="60" as="geometry" />
        </mxCell>
        <mxCell id="eK-SLbAcp5yfGDk_VgoB-19" value="LinkedIn link" style="text;strokeColor=none;align=center;fillColor=none;html=1;verticalAlign=middle;whiteSpace=wrap;rounded=0;" vertex="1" parent="1">
          <mxGeometry x="25" y="940" width="60" height="30" as="geometry" />
        </mxCell>
        <mxCell id="eK-SLbAcp5yfGDk_VgoB-20" value="github Link" style="text;strokeColor=none;align=center;fillColor=none;html=1;verticalAlign=middle;whiteSpace=wrap;rounded=0;" vertex="1" parent="1">
          <mxGeometry x="375" y="935" width="60" height="30" as="geometry" />
        </mxCell>
        <mxCell id="eK-SLbAcp5yfGDk_VgoB-21" value="Facebook Link" style="text;strokeColor=none;align=center;fillColor=none;html=1;verticalAlign=middle;whiteSpace=wrap;rounded=0;" vertex="1" parent="1">
          <mxGeometry x="760" y="935" width="60" height="30" as="geometry" />
        </mxCell>
        <mxCell id="eK-SLbAcp5yfGDk_VgoB-22" value="Address and telephone number" style="text;strokeColor=none;align=center;fillColor=none;html=1;verticalAlign=middle;whiteSpace=wrap;rounded=0;" vertex="1" parent="1">
          <mxGeometry x="320" y="1000" width="170" height="60" as="geometry" />
        </mxCell>
      </root>
    </mxGraphModel>
  </diagram>
  <diagram id="XwRkF940PyhJ99wsrFJl" name="Page-2">
    <mxGraphModel dx="1434" dy="772" grid="1" gridSize="10" guides="1" tooltips="1" connect="1" arrows="1" fold="1" page="1" pageScale="1" pageWidth="850" pageHeight="1100" math="0" shadow="0">
      <root>
        <mxCell id="0" />
        <mxCell id="1" parent="0" />
        <mxCell id="8uqD-4bCRjlUQ3uFs6sk-1" value="" style="rounded=0;whiteSpace=wrap;html=1;" vertex="1" parent="1">
          <mxGeometry x="10" y="70" width="840" height="220" as="geometry" />
        </mxCell>
        <mxCell id="8uqD-4bCRjlUQ3uFs6sk-2" value="LOGO" style="text;strokeColor=none;align=center;fillColor=none;html=1;verticalAlign=middle;whiteSpace=wrap;rounded=0;" vertex="1" parent="1">
          <mxGeometry x="100" y="130" width="60" height="30" as="geometry" />
        </mxCell>
        <mxCell id="8uqD-4bCRjlUQ3uFs6sk-3" value="" style="whiteSpace=wrap;html=1;aspect=fixed;" vertex="1" parent="1">
          <mxGeometry x="80" y="100" width="100" height="100" as="geometry" />
        </mxCell>
        <mxCell id="8uqD-4bCRjlUQ3uFs6sk-4" value="Imaginative Computer Services" style="text;strokeColor=none;align=center;fillColor=none;html=1;verticalAlign=middle;whiteSpace=wrap;rounded=0;" vertex="1" parent="1">
          <mxGeometry x="50" y="240" width="210" height="30" as="geometry" />
        </mxCell>
        <mxCell id="8uqD-4bCRjlUQ3uFs6sk-5" value="LOGO" style="text;strokeColor=none;align=center;fillColor=none;html=1;verticalAlign=middle;whiteSpace=wrap;rounded=0;" vertex="1" parent="1">
          <mxGeometry x="100" y="135" width="60" height="30" as="geometry" />
        </mxCell>
        <mxCell id="8uqD-4bCRjlUQ3uFs6sk-6" value="" style="rounded=0;whiteSpace=wrap;html=1;" vertex="1" parent="1">
          <mxGeometry x="10" y="310" width="840" height="600" as="geometry" />
        </mxCell>
        <mxCell id="8uqD-4bCRjlUQ3uFs6sk-11" value="" style="rounded=0;whiteSpace=wrap;html=1;" vertex="1" parent="1">
          <mxGeometry x="10" y="920" width="840" height="160" as="geometry" />
        </mxCell>
        <mxCell id="8uqD-4bCRjlUQ3uFs6sk-12" value="" style="whiteSpace=wrap;html=1;aspect=fixed;" vertex="1" parent="1">
          <mxGeometry x="30" y="930" width="50" height="50" as="geometry" />
        </mxCell>
        <mxCell id="8uqD-4bCRjlUQ3uFs6sk-13" value="" style="whiteSpace=wrap;html=1;aspect=fixed;" vertex="1" parent="1">
          <mxGeometry x="380" y="930" width="50" height="50" as="geometry" />
        </mxCell>
        <mxCell id="8uqD-4bCRjlUQ3uFs6sk-14" value="" style="whiteSpace=wrap;html=1;aspect=fixed;" vertex="1" parent="1">
          <mxGeometry x="760" y="920" width="60" height="60" as="geometry" />
        </mxCell>
        <mxCell id="8uqD-4bCRjlUQ3uFs6sk-15" value="LinkedIn link" style="text;strokeColor=none;align=center;fillColor=none;html=1;verticalAlign=middle;whiteSpace=wrap;rounded=0;" vertex="1" parent="1">
          <mxGeometry x="25" y="940" width="60" height="30" as="geometry" />
        </mxCell>
        <mxCell id="8uqD-4bCRjlUQ3uFs6sk-16" value="github Link" style="text;strokeColor=none;align=center;fillColor=none;html=1;verticalAlign=middle;whiteSpace=wrap;rounded=0;" vertex="1" parent="1">
          <mxGeometry x="375" y="935" width="60" height="30" as="geometry" />
        </mxCell>
        <mxCell id="8uqD-4bCRjlUQ3uFs6sk-17" value="Facebook Link" style="text;strokeColor=none;align=center;fillColor=none;html=1;verticalAlign=middle;whiteSpace=wrap;rounded=0;" vertex="1" parent="1">
          <mxGeometry x="760" y="935" width="60" height="30" as="geometry" />
        </mxCell>
        <mxCell id="8uqD-4bCRjlUQ3uFs6sk-18" value="Address and telephone number" style="text;strokeColor=none;align=center;fillColor=none;html=1;verticalAlign=middle;whiteSpace=wrap;rounded=0;" vertex="1" parent="1">
          <mxGeometry x="320" y="1000" width="170" height="60" as="geometry" />
        </mxCell>
        <mxCell id="MzYnQ30x8qh-v8gcxc1S-3" value="Home&amp;nbsp; &amp;nbsp;Services&amp;nbsp; &amp;nbsp;About&amp;nbsp; &amp;nbsp; Blog&amp;nbsp; &amp;nbsp; &amp;nbsp;Contact" style="text;strokeColor=none;align=center;fillColor=none;html=1;verticalAlign=middle;whiteSpace=wrap;rounded=0;" vertex="1" parent="1">
          <mxGeometry x="420" y="240" width="400" height="30" as="geometry" />
        </mxCell>
        <mxCell id="MzYnQ30x8qh-v8gcxc1S-4" value="Desktop Services Page" style="text;strokeColor=none;align=center;fillColor=none;html=1;verticalAlign=middle;whiteSpace=wrap;rounded=0;" vertex="1" parent="1">
          <mxGeometry x="310" y="10" width="220" height="30" as="geometry" />
        </mxCell>
        <mxCell id="MzYnQ30x8qh-v8gcxc1S-5" value="" style="whiteSpace=wrap;html=1;aspect=fixed;" vertex="1" parent="1">
          <mxGeometry x="70" y="510" width="200" height="200" as="geometry" />
        </mxCell>
        <mxCell id="MzYnQ30x8qh-v8gcxc1S-8" value="" style="whiteSpace=wrap;html=1;aspect=fixed;" vertex="1" parent="1">
          <mxGeometry x="340" y="510" width="200" height="200" as="geometry" />
        </mxCell>
        <mxCell id="MzYnQ30x8qh-v8gcxc1S-10" value="" style="whiteSpace=wrap;html=1;aspect=fixed;" vertex="1" parent="1">
          <mxGeometry x="590" y="510" width="200" height="200" as="geometry" />
        </mxCell>
        <mxCell id="MzYnQ30x8qh-v8gcxc1S-11" value="" style="rounded=0;whiteSpace=wrap;html=1;" vertex="1" parent="1">
          <mxGeometry x="70" y="640" width="200" height="70" as="geometry" />
        </mxCell>
        <mxCell id="MzYnQ30x8qh-v8gcxc1S-12" value="" style="rounded=0;whiteSpace=wrap;html=1;" vertex="1" parent="1">
          <mxGeometry x="340" y="640" width="200" height="70" as="geometry" />
        </mxCell>
        <mxCell id="MzYnQ30x8qh-v8gcxc1S-13" value="" style="rounded=0;whiteSpace=wrap;html=1;" vertex="1" parent="1">
          <mxGeometry x="590" y="640" width="200" height="70" as="geometry" />
        </mxCell>
        <mxCell id="MzYnQ30x8qh-v8gcxc1S-14" value="Web Development" style="text;strokeColor=none;align=center;fillColor=none;html=1;verticalAlign=middle;whiteSpace=wrap;rounded=0;" vertex="1" parent="1">
          <mxGeometry x="110" y="660" width="130" height="30" as="geometry" />
        </mxCell>
        <mxCell id="MzYnQ30x8qh-v8gcxc1S-15" value="Website Traffic" style="text;strokeColor=none;align=center;fillColor=none;html=1;verticalAlign=middle;whiteSpace=wrap;rounded=0;" vertex="1" parent="1">
          <mxGeometry x="380" y="660" width="130" height="30" as="geometry" />
        </mxCell>
        <mxCell id="MzYnQ30x8qh-v8gcxc1S-16" value="Graphic Design" style="text;strokeColor=none;align=center;fillColor=none;html=1;verticalAlign=middle;whiteSpace=wrap;rounded=0;" vertex="1" parent="1">
          <mxGeometry x="640" y="660" width="110" height="30" as="geometry" />
        </mxCell>
        <mxCell id="tfBOaRcNM9o6KEpVzcpC-1" value="Image here" style="text;strokeColor=none;align=center;fillColor=none;html=1;verticalAlign=middle;whiteSpace=wrap;rounded=0;" vertex="1" parent="1">
          <mxGeometry x="135" y="560" width="80" height="30" as="geometry" />
        </mxCell>
        <mxCell id="tfBOaRcNM9o6KEpVzcpC-2" value="Image here" style="text;strokeColor=none;align=center;fillColor=none;html=1;verticalAlign=middle;whiteSpace=wrap;rounded=0;" vertex="1" parent="1">
          <mxGeometry x="400" y="560" width="80" height="30" as="geometry" />
        </mxCell>
        <mxCell id="tfBOaRcNM9o6KEpVzcpC-3" value="Image here" style="text;strokeColor=none;align=center;fillColor=none;html=1;verticalAlign=middle;whiteSpace=wrap;rounded=0;" vertex="1" parent="1">
          <mxGeometry x="655" y="560" width="80" height="30" as="geometry" />
        </mxCell>
      </root>
    </mxGraphModel>
  </diagram>
  <diagram id="3BKB4UefkKBLFNHtEQwo" name="Page-3">
    <mxGraphModel dx="1434" dy="772" grid="1" gridSize="10" guides="1" tooltips="1" connect="1" arrows="1" fold="1" page="1" pageScale="1" pageWidth="850" pageHeight="1100" math="0" shadow="0">
      <root>
        <mxCell id="0" />
        <mxCell id="1" parent="0" />
        <mxCell id="MYGA7JqQuCIl0vCIZnBO-1" value="" style="rounded=0;whiteSpace=wrap;html=1;" vertex="1" parent="1">
          <mxGeometry x="10" y="70" width="840" height="220" as="geometry" />
        </mxCell>
        <mxCell id="MYGA7JqQuCIl0vCIZnBO-2" value="LOGO" style="text;strokeColor=none;align=center;fillColor=none;html=1;verticalAlign=middle;whiteSpace=wrap;rounded=0;" vertex="1" parent="1">
          <mxGeometry x="100" y="130" width="60" height="30" as="geometry" />
        </mxCell>
        <mxCell id="MYGA7JqQuCIl0vCIZnBO-3" value="" style="whiteSpace=wrap;html=1;aspect=fixed;" vertex="1" parent="1">
          <mxGeometry x="80" y="100" width="100" height="100" as="geometry" />
        </mxCell>
        <mxCell id="MYGA7JqQuCIl0vCIZnBO-4" value="Imaginative Computer Services" style="text;strokeColor=none;align=center;fillColor=none;html=1;verticalAlign=middle;whiteSpace=wrap;rounded=0;" vertex="1" parent="1">
          <mxGeometry x="50" y="240" width="210" height="30" as="geometry" />
        </mxCell>
        <mxCell id="MYGA7JqQuCIl0vCIZnBO-5" value="LOGO" style="text;strokeColor=none;align=center;fillColor=none;html=1;verticalAlign=middle;whiteSpace=wrap;rounded=0;" vertex="1" parent="1">
          <mxGeometry x="100" y="135" width="60" height="30" as="geometry" />
        </mxCell>
        <mxCell id="MYGA7JqQuCIl0vCIZnBO-6" value="" style="rounded=0;whiteSpace=wrap;html=1;" vertex="1" parent="1">
          <mxGeometry x="10" y="300" width="840" height="90" as="geometry" />
        </mxCell>
        <mxCell id="MYGA7JqQuCIl0vCIZnBO-7" value="" style="rounded=0;whiteSpace=wrap;html=1;" vertex="1" parent="1">
          <mxGeometry x="10" y="920" width="840" height="160" as="geometry" />
        </mxCell>
        <mxCell id="MYGA7JqQuCIl0vCIZnBO-8" value="" style="whiteSpace=wrap;html=1;aspect=fixed;" vertex="1" parent="1">
          <mxGeometry x="30" y="930" width="50" height="50" as="geometry" />
        </mxCell>
        <mxCell id="MYGA7JqQuCIl0vCIZnBO-9" value="" style="whiteSpace=wrap;html=1;aspect=fixed;" vertex="1" parent="1">
          <mxGeometry x="380" y="930" width="50" height="50" as="geometry" />
        </mxCell>
        <mxCell id="MYGA7JqQuCIl0vCIZnBO-10" value="" style="whiteSpace=wrap;html=1;aspect=fixed;" vertex="1" parent="1">
          <mxGeometry x="760" y="920" width="60" height="60" as="geometry" />
        </mxCell>
        <mxCell id="MYGA7JqQuCIl0vCIZnBO-11" value="LinkedIn link" style="text;strokeColor=none;align=center;fillColor=none;html=1;verticalAlign=middle;whiteSpace=wrap;rounded=0;" vertex="1" parent="1">
          <mxGeometry x="25" y="940" width="60" height="30" as="geometry" />
        </mxCell>
        <mxCell id="MYGA7JqQuCIl0vCIZnBO-12" value="github Link" style="text;strokeColor=none;align=center;fillColor=none;html=1;verticalAlign=middle;whiteSpace=wrap;rounded=0;" vertex="1" parent="1">
          <mxGeometry x="375" y="935" width="60" height="30" as="geometry" />
        </mxCell>
        <mxCell id="MYGA7JqQuCIl0vCIZnBO-13" value="Facebook Link" style="text;strokeColor=none;align=center;fillColor=none;html=1;verticalAlign=middle;whiteSpace=wrap;rounded=0;" vertex="1" parent="1">
          <mxGeometry x="760" y="935" width="60" height="30" as="geometry" />
        </mxCell>
        <mxCell id="MYGA7JqQuCIl0vCIZnBO-14" value="Address and telephone number" style="text;strokeColor=none;align=center;fillColor=none;html=1;verticalAlign=middle;whiteSpace=wrap;rounded=0;" vertex="1" parent="1">
          <mxGeometry x="320" y="1000" width="170" height="60" as="geometry" />
        </mxCell>
        <mxCell id="MYGA7JqQuCIl0vCIZnBO-15" value="Home&amp;nbsp; &amp;nbsp;Services&amp;nbsp; &amp;nbsp;About&amp;nbsp; &amp;nbsp; Blog&amp;nbsp; &amp;nbsp; &amp;nbsp;Contact" style="text;strokeColor=none;align=center;fillColor=none;html=1;verticalAlign=middle;whiteSpace=wrap;rounded=0;" vertex="1" parent="1">
          <mxGeometry x="420" y="240" width="400" height="30" as="geometry" />
        </mxCell>
        <mxCell id="MYGA7JqQuCIl0vCIZnBO-26" value="Desktop About Page" style="text;strokeColor=none;align=center;fillColor=none;html=1;verticalAlign=middle;whiteSpace=wrap;rounded=0;" vertex="1" parent="1">
          <mxGeometry x="330" y="10" width="190" height="30" as="geometry" />
        </mxCell>
        <mxCell id="MYGA7JqQuCIl0vCIZnBO-28" value="" style="rounded=0;whiteSpace=wrap;html=1;" vertex="1" parent="1">
          <mxGeometry x="60" y="350" width="720" height="560" as="geometry" />
        </mxCell>
        <mxCell id="MYGA7JqQuCIl0vCIZnBO-29" value="Who am I&lt;div&gt;&lt;br&gt;&lt;/div&gt;&lt;div&gt;Wite up including resume button attachment&lt;/div&gt;" style="text;strokeColor=none;align=center;fillColor=none;html=1;verticalAlign=middle;whiteSpace=wrap;rounded=0;" vertex="1" parent="1">
          <mxGeometry x="300" y="380" width="230" height="240" as="geometry" />
        </mxCell>
        <mxCell id="MYGA7JqQuCIl0vCIZnBO-30" value="What I Do&amp;nbsp;&lt;div&gt;&lt;br&gt;&lt;/div&gt;&lt;div&gt;Write Up&lt;/div&gt;" style="text;strokeColor=none;align=center;fillColor=none;html=1;verticalAlign=middle;whiteSpace=wrap;rounded=0;" vertex="1" parent="1">
          <mxGeometry x="300" y="630" width="220" height="150" as="geometry" />
        </mxCell>
      </root>
    </mxGraphModel>
  </diagram>
  <diagram id="c3YvWsRj6hBIfpO1C-lP" name="Page-4">
    <mxGraphModel dx="1434" dy="772" grid="1" gridSize="10" guides="1" tooltips="1" connect="1" arrows="1" fold="1" page="1" pageScale="1" pageWidth="850" pageHeight="1100" math="0" shadow="0">
      <root>
        <mxCell id="0" />
        <mxCell id="1" parent="0" />
        <mxCell id="bipFJZI060atAwpFQM1q-1" value="" style="rounded=0;whiteSpace=wrap;html=1;" vertex="1" parent="1">
          <mxGeometry x="10" y="70" width="840" height="220" as="geometry" />
        </mxCell>
        <mxCell id="bipFJZI060atAwpFQM1q-2" value="LOGO" style="text;strokeColor=none;align=center;fillColor=none;html=1;verticalAlign=middle;whiteSpace=wrap;rounded=0;" vertex="1" parent="1">
          <mxGeometry x="100" y="130" width="60" height="30" as="geometry" />
        </mxCell>
        <mxCell id="bipFJZI060atAwpFQM1q-3" value="" style="whiteSpace=wrap;html=1;aspect=fixed;" vertex="1" parent="1">
          <mxGeometry x="80" y="100" width="100" height="100" as="geometry" />
        </mxCell>
        <mxCell id="bipFJZI060atAwpFQM1q-4" value="Imaginative Computer Services" style="text;strokeColor=none;align=center;fillColor=none;html=1;verticalAlign=middle;whiteSpace=wrap;rounded=0;" vertex="1" parent="1">
          <mxGeometry x="50" y="240" width="210" height="30" as="geometry" />
        </mxCell>
        <mxCell id="bipFJZI060atAwpFQM1q-5" value="LOGO" style="text;strokeColor=none;align=center;fillColor=none;html=1;verticalAlign=middle;whiteSpace=wrap;rounded=0;" vertex="1" parent="1">
          <mxGeometry x="100" y="135" width="60" height="30" as="geometry" />
        </mxCell>
        <mxCell id="bipFJZI060atAwpFQM1q-7" value="" style="rounded=0;whiteSpace=wrap;html=1;" vertex="1" parent="1">
          <mxGeometry x="10" y="920" width="840" height="160" as="geometry" />
        </mxCell>
        <mxCell id="bipFJZI060atAwpFQM1q-8" value="" style="whiteSpace=wrap;html=1;aspect=fixed;" vertex="1" parent="1">
          <mxGeometry x="30" y="930" width="50" height="50" as="geometry" />
        </mxCell>
        <mxCell id="bipFJZI060atAwpFQM1q-9" value="" style="whiteSpace=wrap;html=1;aspect=fixed;" vertex="1" parent="1">
          <mxGeometry x="380" y="930" width="50" height="50" as="geometry" />
        </mxCell>
        <mxCell id="bipFJZI060atAwpFQM1q-10" value="" style="whiteSpace=wrap;html=1;aspect=fixed;" vertex="1" parent="1">
          <mxGeometry x="750" y="925" width="60" height="60" as="geometry" />
        </mxCell>
        <mxCell id="bipFJZI060atAwpFQM1q-11" value="LinkedIn link" style="text;strokeColor=none;align=center;fillColor=none;html=1;verticalAlign=middle;whiteSpace=wrap;rounded=0;" vertex="1" parent="1">
          <mxGeometry x="25" y="940" width="60" height="30" as="geometry" />
        </mxCell>
        <mxCell id="bipFJZI060atAwpFQM1q-12" value="github Link" style="text;strokeColor=none;align=center;fillColor=none;html=1;verticalAlign=middle;whiteSpace=wrap;rounded=0;" vertex="1" parent="1">
          <mxGeometry x="375" y="935" width="60" height="30" as="geometry" />
        </mxCell>
        <mxCell id="bipFJZI060atAwpFQM1q-13" value="Facebook Link" style="text;strokeColor=none;align=center;fillColor=none;html=1;verticalAlign=middle;whiteSpace=wrap;rounded=0;" vertex="1" parent="1">
          <mxGeometry x="750" y="935" width="60" height="30" as="geometry" />
        </mxCell>
        <mxCell id="bipFJZI060atAwpFQM1q-14" value="Address and telephone number" style="text;strokeColor=none;align=center;fillColor=none;html=1;verticalAlign=middle;whiteSpace=wrap;rounded=0;" vertex="1" parent="1">
          <mxGeometry x="320" y="1000" width="170" height="60" as="geometry" />
        </mxCell>
        <mxCell id="bipFJZI060atAwpFQM1q-15" value="Home&amp;nbsp; &amp;nbsp;Services&amp;nbsp; &amp;nbsp;About&amp;nbsp; &amp;nbsp; Blog&amp;nbsp; &amp;nbsp; &amp;nbsp;Contact" style="text;strokeColor=none;align=center;fillColor=none;html=1;verticalAlign=middle;whiteSpace=wrap;rounded=0;" vertex="1" parent="1">
          <mxGeometry x="420" y="240" width="400" height="30" as="geometry" />
        </mxCell>
        <mxCell id="bipFJZI060atAwpFQM1q-16" value="Desktop Blog Page" style="text;strokeColor=none;align=center;fillColor=none;html=1;verticalAlign=middle;whiteSpace=wrap;rounded=0;" vertex="1" parent="1">
          <mxGeometry x="310" y="10" width="220" height="30" as="geometry" />
        </mxCell>
        <mxCell id="bipFJZI060atAwpFQM1q-26" value="" style="rounded=0;whiteSpace=wrap;html=1;" vertex="1" parent="1">
          <mxGeometry x="520" y="300" width="320" height="610" as="geometry" />
        </mxCell>
        <mxCell id="bipFJZI060atAwpFQM1q-27" value="Recent Posts with List" style="text;strokeColor=none;align=center;fillColor=none;html=1;verticalAlign=middle;whiteSpace=wrap;rounded=0;" vertex="1" parent="1">
          <mxGeometry x="630" y="330" width="100" height="80" as="geometry" />
        </mxCell>
        <mxCell id="bipFJZI060atAwpFQM1q-28" value="" style="rounded=0;whiteSpace=wrap;html=1;" vertex="1" parent="1">
          <mxGeometry x="10" y="300" width="500" height="110" as="geometry" />
        </mxCell>
        <mxCell id="bipFJZI060atAwpFQM1q-29" value="" style="rounded=0;whiteSpace=wrap;html=1;" vertex="1" parent="1">
          <mxGeometry x="10" y="420" width="500" height="110" as="geometry" />
        </mxCell>
        <mxCell id="bipFJZI060atAwpFQM1q-30" value="" style="rounded=0;whiteSpace=wrap;html=1;" vertex="1" parent="1">
          <mxGeometry x="10" y="540" width="500" height="110" as="geometry" />
        </mxCell>
        <mxCell id="bipFJZI060atAwpFQM1q-31" value="" style="rounded=0;whiteSpace=wrap;html=1;" vertex="1" parent="1">
          <mxGeometry x="10" y="660" width="500" height="110" as="geometry" />
        </mxCell>
        <mxCell id="bipFJZI060atAwpFQM1q-32" value="" style="rounded=0;whiteSpace=wrap;html=1;" vertex="1" parent="1">
          <mxGeometry x="10" y="780" width="500" height="110" as="geometry" />
        </mxCell>
        <mxCell id="bipFJZI060atAwpFQM1q-33" value="Blog Post with image and text" style="text;strokeColor=none;align=center;fillColor=none;html=1;verticalAlign=middle;whiteSpace=wrap;rounded=0;" vertex="1" parent="1">
          <mxGeometry x="155" y="580" width="220" height="30" as="geometry" />
        </mxCell>
        <mxCell id="bipFJZI060atAwpFQM1q-34" value="Blog Post with image and text" style="text;strokeColor=none;align=center;fillColor=none;html=1;verticalAlign=middle;whiteSpace=wrap;rounded=0;" vertex="1" parent="1">
          <mxGeometry x="150" y="460" width="220" height="30" as="geometry" />
        </mxCell>
        <mxCell id="bipFJZI060atAwpFQM1q-35" value="Blog Post with image and text" style="text;strokeColor=none;align=center;fillColor=none;html=1;verticalAlign=middle;whiteSpace=wrap;rounded=0;" vertex="1" parent="1">
          <mxGeometry x="150" y="350" width="220" height="30" as="geometry" />
        </mxCell>
        <mxCell id="bipFJZI060atAwpFQM1q-36" value="Blog Post with image and text" style="text;strokeColor=none;align=center;fillColor=none;html=1;verticalAlign=middle;whiteSpace=wrap;rounded=0;" vertex="1" parent="1">
          <mxGeometry x="155" y="690" width="220" height="30" as="geometry" />
        </mxCell>
        <mxCell id="bipFJZI060atAwpFQM1q-38" value="Blog Post with image and text" style="text;strokeColor=none;align=center;fillColor=none;html=1;verticalAlign=middle;whiteSpace=wrap;rounded=0;" vertex="1" parent="1">
          <mxGeometry x="150" y="810" width="220" height="30" as="geometry" />
        </mxCell>
      </root>
    </mxGraphModel>
  </diagram>
  <diagram id="kZn3sd9DIKaLHYMPcSzN" name="Page-5">
    <mxGraphModel dx="1434" dy="772" grid="1" gridSize="10" guides="1" tooltips="1" connect="1" arrows="1" fold="1" page="1" pageScale="1" pageWidth="850" pageHeight="1100" math="0" shadow="0">
      <root>
        <mxCell id="0" />
        <mxCell id="1" parent="0" />
        <mxCell id="YQO_ezOqME0CqIuqgLhp-1" value="" style="rounded=0;whiteSpace=wrap;html=1;" vertex="1" parent="1">
          <mxGeometry x="10" y="70" width="840" height="220" as="geometry" />
        </mxCell>
        <mxCell id="YQO_ezOqME0CqIuqgLhp-2" value="LOGO" style="text;strokeColor=none;align=center;fillColor=none;html=1;verticalAlign=middle;whiteSpace=wrap;rounded=0;" vertex="1" parent="1">
          <mxGeometry x="100" y="130" width="60" height="30" as="geometry" />
        </mxCell>
        <mxCell id="YQO_ezOqME0CqIuqgLhp-3" value="" style="whiteSpace=wrap;html=1;aspect=fixed;" vertex="1" parent="1">
          <mxGeometry x="80" y="100" width="100" height="100" as="geometry" />
        </mxCell>
        <mxCell id="YQO_ezOqME0CqIuqgLhp-4" value="Imaginative Computer Services" style="text;strokeColor=none;align=center;fillColor=none;html=1;verticalAlign=middle;whiteSpace=wrap;rounded=0;" vertex="1" parent="1">
          <mxGeometry x="50" y="240" width="210" height="30" as="geometry" />
        </mxCell>
        <mxCell id="YQO_ezOqME0CqIuqgLhp-5" value="LOGO" style="text;strokeColor=none;align=center;fillColor=none;html=1;verticalAlign=middle;whiteSpace=wrap;rounded=0;" vertex="1" parent="1">
          <mxGeometry x="100" y="135" width="60" height="30" as="geometry" />
        </mxCell>
        <mxCell id="YQO_ezOqME0CqIuqgLhp-7" value="" style="rounded=0;whiteSpace=wrap;html=1;" vertex="1" parent="1">
          <mxGeometry x="10" y="920" width="840" height="160" as="geometry" />
        </mxCell>
        <mxCell id="YQO_ezOqME0CqIuqgLhp-8" value="" style="whiteSpace=wrap;html=1;aspect=fixed;" vertex="1" parent="1">
          <mxGeometry x="30" y="930" width="50" height="50" as="geometry" />
        </mxCell>
        <mxCell id="YQO_ezOqME0CqIuqgLhp-9" value="" style="whiteSpace=wrap;html=1;aspect=fixed;" vertex="1" parent="1">
          <mxGeometry x="380" y="930" width="50" height="50" as="geometry" />
        </mxCell>
        <mxCell id="YQO_ezOqME0CqIuqgLhp-10" value="" style="whiteSpace=wrap;html=1;aspect=fixed;" vertex="1" parent="1">
          <mxGeometry x="760" y="920" width="60" height="60" as="geometry" />
        </mxCell>
        <mxCell id="YQO_ezOqME0CqIuqgLhp-11" value="LinkedIn link" style="text;strokeColor=none;align=center;fillColor=none;html=1;verticalAlign=middle;whiteSpace=wrap;rounded=0;" vertex="1" parent="1">
          <mxGeometry x="25" y="940" width="60" height="30" as="geometry" />
        </mxCell>
        <mxCell id="YQO_ezOqME0CqIuqgLhp-12" value="github Link" style="text;strokeColor=none;align=center;fillColor=none;html=1;verticalAlign=middle;whiteSpace=wrap;rounded=0;" vertex="1" parent="1">
          <mxGeometry x="375" y="935" width="60" height="30" as="geometry" />
        </mxCell>
        <mxCell id="YQO_ezOqME0CqIuqgLhp-13" value="Facebook Link" style="text;strokeColor=none;align=center;fillColor=none;html=1;verticalAlign=middle;whiteSpace=wrap;rounded=0;" vertex="1" parent="1">
          <mxGeometry x="760" y="935" width="60" height="30" as="geometry" />
        </mxCell>
        <mxCell id="YQO_ezOqME0CqIuqgLhp-14" value="Address and telephone number" style="text;strokeColor=none;align=center;fillColor=none;html=1;verticalAlign=middle;whiteSpace=wrap;rounded=0;" vertex="1" parent="1">
          <mxGeometry x="320" y="1000" width="170" height="60" as="geometry" />
        </mxCell>
        <mxCell id="YQO_ezOqME0CqIuqgLhp-15" value="Home&amp;nbsp; &amp;nbsp;Services&amp;nbsp; &amp;nbsp;About&amp;nbsp; &amp;nbsp; Blog&amp;nbsp; &amp;nbsp; &amp;nbsp;Contact" style="text;strokeColor=none;align=center;fillColor=none;html=1;verticalAlign=middle;whiteSpace=wrap;rounded=0;" vertex="1" parent="1">
          <mxGeometry x="420" y="240" width="400" height="30" as="geometry" />
        </mxCell>
        <mxCell id="YQO_ezOqME0CqIuqgLhp-16" value="Desktop Contact Page" style="text;strokeColor=none;align=center;fillColor=none;html=1;verticalAlign=middle;whiteSpace=wrap;rounded=0;" vertex="1" parent="1">
          <mxGeometry x="310" y="10" width="220" height="30" as="geometry" />
        </mxCell>
        <mxCell id="YQO_ezOqME0CqIuqgLhp-26" value="Contact Us" style="text;strokeColor=none;align=center;fillColor=none;html=1;verticalAlign=middle;whiteSpace=wrap;rounded=0;" vertex="1" parent="1">
          <mxGeometry x="300" y="360" width="230" height="90" as="geometry" />
        </mxCell>
        <mxCell id="YQO_ezOqME0CqIuqgLhp-27" value="" style="rounded=0;whiteSpace=wrap;html=1;" vertex="1" parent="1">
          <mxGeometry x="360" y="440" width="240" height="40" as="geometry" />
        </mxCell>
        <mxCell id="YQO_ezOqME0CqIuqgLhp-28" value="" style="rounded=0;whiteSpace=wrap;html=1;" vertex="1" parent="1">
          <mxGeometry x="360" y="500" width="240" height="40" as="geometry" />
        </mxCell>
        <mxCell id="YQO_ezOqME0CqIuqgLhp-29" value="" style="rounded=0;whiteSpace=wrap;html=1;" vertex="1" parent="1">
          <mxGeometry x="360" y="560" width="240" height="40" as="geometry" />
        </mxCell>
        <mxCell id="YQO_ezOqME0CqIuqgLhp-30" value="" style="rounded=0;whiteSpace=wrap;html=1;" vertex="1" parent="1">
          <mxGeometry x="360" y="630" width="240" height="130" as="geometry" />
        </mxCell>
        <mxCell id="YQO_ezOqME0CqIuqgLhp-31" value="Name" style="text;strokeColor=none;align=center;fillColor=none;html=1;verticalAlign=middle;whiteSpace=wrap;rounded=0;" vertex="1" parent="1">
          <mxGeometry x="260" y="445" width="60" height="30" as="geometry" />
        </mxCell>
        <mxCell id="YQO_ezOqME0CqIuqgLhp-32" value="Email" style="text;strokeColor=none;align=center;fillColor=none;html=1;verticalAlign=middle;whiteSpace=wrap;rounded=0;" vertex="1" parent="1">
          <mxGeometry x="260" y="510" width="60" height="30" as="geometry" />
        </mxCell>
        <mxCell id="YQO_ezOqME0CqIuqgLhp-33" value="Subject" style="text;strokeColor=none;align=center;fillColor=none;html=1;verticalAlign=middle;whiteSpace=wrap;rounded=0;" vertex="1" parent="1">
          <mxGeometry x="260" y="565" width="60" height="30" as="geometry" />
        </mxCell>
        <mxCell id="YQO_ezOqME0CqIuqgLhp-34" value="Description" style="text;strokeColor=none;align=center;fillColor=none;html=1;verticalAlign=middle;whiteSpace=wrap;rounded=0;" vertex="1" parent="1">
          <mxGeometry x="260" y="630" width="60" height="30" as="geometry" />
        </mxCell>
        <mxCell id="YQO_ezOqME0CqIuqgLhp-35" value="" style="rounded=0;whiteSpace=wrap;html=1;" vertex="1" parent="1">
          <mxGeometry x="390" y="780" width="90" height="30" as="geometry" />
        </mxCell>
        <mxCell id="YQO_ezOqME0CqIuqgLhp-36" value="Submit Button" style="text;strokeColor=none;align=center;fillColor=none;html=1;verticalAlign=middle;whiteSpace=wrap;rounded=0;" vertex="1" parent="1">
          <mxGeometry x="410" y="780" width="60" height="30" as="geometry" />
        </mxCell>
      </root>
    </mxGraphModel>
  </diagram>
  <diagram id="0g45L2-STiDSvrA5dBGo" name="Page-6">
    <mxGraphModel dx="1434" dy="772" grid="1" gridSize="10" guides="1" tooltips="1" connect="1" arrows="1" fold="1" page="1" pageScale="1" pageWidth="850" pageHeight="1100" math="0" shadow="0">
      <root>
        <mxCell id="0" />
        <mxCell id="1" parent="0" />
        <mxCell id="LwFYdygA7w_4aoMiBn2R-1" value="Mobile Home Page" style="text;strokeColor=none;align=center;fillColor=none;html=1;verticalAlign=middle;whiteSpace=wrap;rounded=0;" vertex="1" parent="1">
          <mxGeometry x="350" y="10" width="150" height="30" as="geometry" />
        </mxCell>
        <mxCell id="LwFYdygA7w_4aoMiBn2R-2" value="" style="rounded=0;whiteSpace=wrap;html=1;" vertex="1" parent="1">
          <mxGeometry x="210" y="60" width="400" height="300" as="geometry" />
        </mxCell>
        <mxCell id="LwFYdygA7w_4aoMiBn2R-3" value="" style="rounded=0;whiteSpace=wrap;html=1;" vertex="1" parent="1">
          <mxGeometry x="350" y="80" width="120" height="80" as="geometry" />
        </mxCell>
        <mxCell id="LwFYdygA7w_4aoMiBn2R-4" value="LOGO" style="text;strokeColor=none;align=center;fillColor=none;html=1;verticalAlign=middle;whiteSpace=wrap;rounded=0;" vertex="1" parent="1">
          <mxGeometry x="380" y="105" width="60" height="30" as="geometry" />
        </mxCell>
        <mxCell id="LwFYdygA7w_4aoMiBn2R-5" value="Imaginative Computer Services" style="text;strokeColor=none;align=center;fillColor=none;html=1;verticalAlign=middle;whiteSpace=wrap;rounded=0;" vertex="1" parent="1">
          <mxGeometry x="360" y="175" width="100" height="70" as="geometry" />
        </mxCell>
        <mxCell id="LwFYdygA7w_4aoMiBn2R-6" value="Home&amp;nbsp; &amp;nbsp;Services&amp;nbsp; &amp;nbsp; About&amp;nbsp; &amp;nbsp; Blog&amp;nbsp; &amp;nbsp; Contact" style="text;strokeColor=none;align=center;fillColor=none;html=1;verticalAlign=middle;whiteSpace=wrap;rounded=0;" vertex="1" parent="1">
          <mxGeometry x="220" y="320" width="380" height="30" as="geometry" />
        </mxCell>
        <mxCell id="LwFYdygA7w_4aoMiBn2R-7" value="" style="rounded=0;whiteSpace=wrap;html=1;" vertex="1" parent="1">
          <mxGeometry x="210" y="370" width="400" height="280" as="geometry" />
        </mxCell>
        <mxCell id="LwFYdygA7w_4aoMiBn2R-8" value="" style="rounded=0;whiteSpace=wrap;html=1;" vertex="1" parent="1">
          <mxGeometry x="210" y="660" width="400" height="220" as="geometry" />
        </mxCell>
        <mxCell id="LwFYdygA7w_4aoMiBn2R-9" value="" style="rounded=0;whiteSpace=wrap;html=1;" vertex="1" parent="1">
          <mxGeometry x="210" y="890" width="400" height="140" as="geometry" />
        </mxCell>
        <mxCell id="LwFYdygA7w_4aoMiBn2R-10" value="Background feature image in this box" style="text;strokeColor=none;align=center;fillColor=none;html=1;verticalAlign=middle;whiteSpace=wrap;rounded=0;" vertex="1" parent="1">
          <mxGeometry x="340" y="390" width="120" height="30" as="geometry" />
        </mxCell>
        <mxCell id="LwFYdygA7w_4aoMiBn2R-11" value="Imaginative Computer Services With Border Taking Up most of the Box" style="text;strokeColor=none;align=center;fillColor=none;html=1;verticalAlign=middle;whiteSpace=wrap;rounded=0;" vertex="1" parent="1">
          <mxGeometry x="325" y="460" width="150" height="70" as="geometry" />
        </mxCell>
        <mxCell id="LwFYdygA7w_4aoMiBn2R-12" value="Write Up About Self and Services in this box" style="text;strokeColor=none;align=center;fillColor=none;html=1;verticalAlign=middle;whiteSpace=wrap;rounded=0;" vertex="1" parent="1">
          <mxGeometry x="370" y="730" width="60" height="30" as="geometry" />
        </mxCell>
        <mxCell id="LwFYdygA7w_4aoMiBn2R-13" value="" style="whiteSpace=wrap;html=1;aspect=fixed;" vertex="1" parent="1">
          <mxGeometry x="240" y="900" width="60" height="60" as="geometry" />
        </mxCell>
        <mxCell id="LwFYdygA7w_4aoMiBn2R-14" value="" style="whiteSpace=wrap;html=1;aspect=fixed;" vertex="1" parent="1">
          <mxGeometry x="380" y="900" width="60" height="60" as="geometry" />
        </mxCell>
        <mxCell id="LwFYdygA7w_4aoMiBn2R-15" value="" style="whiteSpace=wrap;html=1;aspect=fixed;" vertex="1" parent="1">
          <mxGeometry x="510" y="900" width="60" height="60" as="geometry" />
        </mxCell>
        <mxCell id="LwFYdygA7w_4aoMiBn2R-16" value="LinkedIn Link" style="text;strokeColor=none;align=center;fillColor=none;html=1;verticalAlign=middle;whiteSpace=wrap;rounded=0;" vertex="1" parent="1">
          <mxGeometry x="240" y="910" width="60" height="30" as="geometry" />
        </mxCell>
        <mxCell id="LwFYdygA7w_4aoMiBn2R-17" value="Github link" style="text;strokeColor=none;align=center;fillColor=none;html=1;verticalAlign=middle;whiteSpace=wrap;rounded=0;" vertex="1" parent="1">
          <mxGeometry x="385" y="915" width="50" height="30" as="geometry" />
        </mxCell>
        <mxCell id="LwFYdygA7w_4aoMiBn2R-18" value="Facebook Link" style="text;strokeColor=none;align=center;fillColor=none;html=1;verticalAlign=middle;whiteSpace=wrap;rounded=0;" vertex="1" parent="1">
          <mxGeometry x="510" y="915" width="60" height="30" as="geometry" />
        </mxCell>
        <mxCell id="nYXHfMB7c_hHOhOIL96_-1" value="Address and telephone number" style="text;strokeColor=none;align=center;fillColor=none;html=1;verticalAlign=middle;whiteSpace=wrap;rounded=0;" vertex="1" parent="1">
          <mxGeometry x="330" y="970" width="170" height="60" as="geometry" />
        </mxCell>
      </root>
    </mxGraphModel>
  </diagram>
  <diagram id="NrVxmOMm6eXIp19eC326" name="Page-7">
    <mxGraphModel dx="1434" dy="772" grid="1" gridSize="10" guides="1" tooltips="1" connect="1" arrows="1" fold="1" page="1" pageScale="1" pageWidth="850" pageHeight="1100" math="0" shadow="0">
      <root>
        <mxCell id="0" />
        <mxCell id="1" parent="0" />
        <mxCell id="Ve4lPGrVdtI4WyuPZ0om-1" value="Mobile Services Page" style="text;strokeColor=none;align=center;fillColor=none;html=1;verticalAlign=middle;whiteSpace=wrap;rounded=0;" vertex="1" parent="1">
          <mxGeometry x="350" y="10" width="150" height="30" as="geometry" />
        </mxCell>
        <mxCell id="Ve4lPGrVdtI4WyuPZ0om-2" value="" style="rounded=0;whiteSpace=wrap;html=1;" vertex="1" parent="1">
          <mxGeometry x="210" y="60" width="400" height="300" as="geometry" />
        </mxCell>
        <mxCell id="Ve4lPGrVdtI4WyuPZ0om-3" value="" style="rounded=0;whiteSpace=wrap;html=1;" vertex="1" parent="1">
          <mxGeometry x="350" y="80" width="120" height="80" as="geometry" />
        </mxCell>
        <mxCell id="Ve4lPGrVdtI4WyuPZ0om-4" value="LOGO" style="text;strokeColor=none;align=center;fillColor=none;html=1;verticalAlign=middle;whiteSpace=wrap;rounded=0;" vertex="1" parent="1">
          <mxGeometry x="380" y="105" width="60" height="30" as="geometry" />
        </mxCell>
        <mxCell id="Ve4lPGrVdtI4WyuPZ0om-5" value="Imaginative Computer Services" style="text;strokeColor=none;align=center;fillColor=none;html=1;verticalAlign=middle;whiteSpace=wrap;rounded=0;" vertex="1" parent="1">
          <mxGeometry x="360" y="175" width="100" height="70" as="geometry" />
        </mxCell>
        <mxCell id="Ve4lPGrVdtI4WyuPZ0om-6" value="Home&amp;nbsp; &amp;nbsp;Services&amp;nbsp; &amp;nbsp; About&amp;nbsp; &amp;nbsp; Blog&amp;nbsp; &amp;nbsp; Contact" style="text;strokeColor=none;align=center;fillColor=none;html=1;verticalAlign=middle;whiteSpace=wrap;rounded=0;" vertex="1" parent="1">
          <mxGeometry x="220" y="320" width="380" height="30" as="geometry" />
        </mxCell>
        <mxCell id="Ve4lPGrVdtI4WyuPZ0om-9" value="" style="rounded=0;whiteSpace=wrap;html=1;" vertex="1" parent="1">
          <mxGeometry x="210" y="890" width="400" height="140" as="geometry" />
        </mxCell>
        <mxCell id="Ve4lPGrVdtI4WyuPZ0om-13" value="" style="whiteSpace=wrap;html=1;aspect=fixed;" vertex="1" parent="1">
          <mxGeometry x="240" y="900" width="60" height="60" as="geometry" />
        </mxCell>
        <mxCell id="Ve4lPGrVdtI4WyuPZ0om-14" value="" style="whiteSpace=wrap;html=1;aspect=fixed;" vertex="1" parent="1">
          <mxGeometry x="380" y="900" width="60" height="60" as="geometry" />
        </mxCell>
        <mxCell id="Ve4lPGrVdtI4WyuPZ0om-15" value="" style="whiteSpace=wrap;html=1;aspect=fixed;" vertex="1" parent="1">
          <mxGeometry x="510" y="900" width="60" height="60" as="geometry" />
        </mxCell>
        <mxCell id="Ve4lPGrVdtI4WyuPZ0om-16" value="LinkedIn Link" style="text;strokeColor=none;align=center;fillColor=none;html=1;verticalAlign=middle;whiteSpace=wrap;rounded=0;" vertex="1" parent="1">
          <mxGeometry x="240" y="910" width="60" height="30" as="geometry" />
        </mxCell>
        <mxCell id="Ve4lPGrVdtI4WyuPZ0om-17" value="Github link" style="text;strokeColor=none;align=center;fillColor=none;html=1;verticalAlign=middle;whiteSpace=wrap;rounded=0;" vertex="1" parent="1">
          <mxGeometry x="385" y="915" width="50" height="30" as="geometry" />
        </mxCell>
        <mxCell id="Ve4lPGrVdtI4WyuPZ0om-18" value="Facebook Link" style="text;strokeColor=none;align=center;fillColor=none;html=1;verticalAlign=middle;whiteSpace=wrap;rounded=0;" vertex="1" parent="1">
          <mxGeometry x="510" y="915" width="60" height="30" as="geometry" />
        </mxCell>
        <mxCell id="Ve4lPGrVdtI4WyuPZ0om-19" value="Address and telephone number" style="text;strokeColor=none;align=center;fillColor=none;html=1;verticalAlign=middle;whiteSpace=wrap;rounded=0;" vertex="1" parent="1">
          <mxGeometry x="330" y="970" width="170" height="60" as="geometry" />
        </mxCell>
        <mxCell id="Ve4lPGrVdtI4WyuPZ0om-20" value="" style="rounded=0;whiteSpace=wrap;html=1;" vertex="1" parent="1">
          <mxGeometry x="210" y="370" width="400" height="150" as="geometry" />
        </mxCell>
        <mxCell id="Ve4lPGrVdtI4WyuPZ0om-21" value="" style="rounded=0;whiteSpace=wrap;html=1;" vertex="1" parent="1">
          <mxGeometry x="210" y="550" width="400" height="150" as="geometry" />
        </mxCell>
        <mxCell id="Ve4lPGrVdtI4WyuPZ0om-22" value="" style="rounded=0;whiteSpace=wrap;html=1;" vertex="1" parent="1">
          <mxGeometry x="210" y="720" width="400" height="150" as="geometry" />
        </mxCell>
        <mxCell id="Ve4lPGrVdtI4WyuPZ0om-23" value="" style="rounded=0;whiteSpace=wrap;html=1;" vertex="1" parent="1">
          <mxGeometry x="210" y="460" width="400" height="60" as="geometry" />
        </mxCell>
        <mxCell id="Ve4lPGrVdtI4WyuPZ0om-24" value="" style="rounded=0;whiteSpace=wrap;html=1;" vertex="1" parent="1">
          <mxGeometry x="210" y="640" width="400" height="60" as="geometry" />
        </mxCell>
        <mxCell id="Ve4lPGrVdtI4WyuPZ0om-25" value="" style="rounded=0;whiteSpace=wrap;html=1;" vertex="1" parent="1">
          <mxGeometry x="210" y="810" width="400" height="60" as="geometry" />
        </mxCell>
        <mxCell id="Ve4lPGrVdtI4WyuPZ0om-26" value="Web Develpment" style="text;strokeColor=none;align=center;fillColor=none;html=1;verticalAlign=middle;whiteSpace=wrap;rounded=0;" vertex="1" parent="1">
          <mxGeometry x="340" y="475" width="150" height="30" as="geometry" />
        </mxCell>
        <mxCell id="Ve4lPGrVdtI4WyuPZ0om-27" value="Website Traffic" style="text;strokeColor=none;align=center;fillColor=none;html=1;verticalAlign=middle;whiteSpace=wrap;rounded=0;" vertex="1" parent="1">
          <mxGeometry x="340" y="655" width="150" height="30" as="geometry" />
        </mxCell>
        <mxCell id="Ve4lPGrVdtI4WyuPZ0om-28" value="Graphic Design" style="text;strokeColor=none;align=center;fillColor=none;html=1;verticalAlign=middle;whiteSpace=wrap;rounded=0;" vertex="1" parent="1">
          <mxGeometry x="330" y="825" width="150" height="30" as="geometry" />
        </mxCell>
        <mxCell id="Ve4lPGrVdtI4WyuPZ0om-29" value="Image here" style="text;strokeColor=none;align=center;fillColor=none;html=1;verticalAlign=middle;whiteSpace=wrap;rounded=0;" vertex="1" parent="1">
          <mxGeometry x="380" y="400" width="80" height="30" as="geometry" />
        </mxCell>
        <mxCell id="Ve4lPGrVdtI4WyuPZ0om-30" value="Image here" style="text;strokeColor=none;align=center;fillColor=none;html=1;verticalAlign=middle;whiteSpace=wrap;rounded=0;" vertex="1" parent="1">
          <mxGeometry x="370" y="580" width="80" height="30" as="geometry" />
        </mxCell>
        <mxCell id="Ve4lPGrVdtI4WyuPZ0om-31" value="Image here" style="text;strokeColor=none;align=center;fillColor=none;html=1;verticalAlign=middle;whiteSpace=wrap;rounded=0;" vertex="1" parent="1">
          <mxGeometry x="370" y="750" width="80" height="30" as="geometry" />
        </mxCell>
      </root>
    </mxGraphModel>
  </diagram>
  <diagram id="Fa7VMPsel15a0hFaMSLi" name="Page-8">
    <mxGraphModel dx="1434" dy="772" grid="1" gridSize="10" guides="1" tooltips="1" connect="1" arrows="1" fold="1" page="1" pageScale="1" pageWidth="850" pageHeight="1100" math="0" shadow="0">
      <root>
        <mxCell id="0" />
        <mxCell id="1" parent="0" />
        <mxCell id="OLC3-Uj3shSsbxQ3VMCo-1" value="Mobile About Page" style="text;strokeColor=none;align=center;fillColor=none;html=1;verticalAlign=middle;whiteSpace=wrap;rounded=0;" vertex="1" parent="1">
          <mxGeometry x="350" y="10" width="150" height="30" as="geometry" />
        </mxCell>
        <mxCell id="OLC3-Uj3shSsbxQ3VMCo-2" value="" style="rounded=0;whiteSpace=wrap;html=1;" vertex="1" parent="1">
          <mxGeometry x="210" y="60" width="400" height="300" as="geometry" />
        </mxCell>
        <mxCell id="OLC3-Uj3shSsbxQ3VMCo-3" value="" style="rounded=0;whiteSpace=wrap;html=1;" vertex="1" parent="1">
          <mxGeometry x="350" y="80" width="120" height="80" as="geometry" />
        </mxCell>
        <mxCell id="OLC3-Uj3shSsbxQ3VMCo-4" value="LOGO" style="text;strokeColor=none;align=center;fillColor=none;html=1;verticalAlign=middle;whiteSpace=wrap;rounded=0;" vertex="1" parent="1">
          <mxGeometry x="380" y="105" width="60" height="30" as="geometry" />
        </mxCell>
        <mxCell id="OLC3-Uj3shSsbxQ3VMCo-5" value="Imaginative Computer Services" style="text;strokeColor=none;align=center;fillColor=none;html=1;verticalAlign=middle;whiteSpace=wrap;rounded=0;" vertex="1" parent="1">
          <mxGeometry x="360" y="175" width="100" height="70" as="geometry" />
        </mxCell>
        <mxCell id="OLC3-Uj3shSsbxQ3VMCo-6" value="Home&amp;nbsp; &amp;nbsp;Services&amp;nbsp; &amp;nbsp; About&amp;nbsp; &amp;nbsp; Blog&amp;nbsp; &amp;nbsp; Contact" style="text;strokeColor=none;align=center;fillColor=none;html=1;verticalAlign=middle;whiteSpace=wrap;rounded=0;" vertex="1" parent="1">
          <mxGeometry x="220" y="320" width="380" height="30" as="geometry" />
        </mxCell>
        <mxCell id="OLC3-Uj3shSsbxQ3VMCo-7" value="" style="rounded=0;whiteSpace=wrap;html=1;" vertex="1" parent="1">
          <mxGeometry x="210" y="890" width="400" height="140" as="geometry" />
        </mxCell>
        <mxCell id="OLC3-Uj3shSsbxQ3VMCo-8" value="" style="whiteSpace=wrap;html=1;aspect=fixed;" vertex="1" parent="1">
          <mxGeometry x="240" y="900" width="60" height="60" as="geometry" />
        </mxCell>
        <mxCell id="OLC3-Uj3shSsbxQ3VMCo-9" value="" style="whiteSpace=wrap;html=1;aspect=fixed;" vertex="1" parent="1">
          <mxGeometry x="380" y="900" width="60" height="60" as="geometry" />
        </mxCell>
        <mxCell id="OLC3-Uj3shSsbxQ3VMCo-10" value="" style="whiteSpace=wrap;html=1;aspect=fixed;" vertex="1" parent="1">
          <mxGeometry x="510" y="900" width="60" height="60" as="geometry" />
        </mxCell>
        <mxCell id="OLC3-Uj3shSsbxQ3VMCo-11" value="LinkedIn Link" style="text;strokeColor=none;align=center;fillColor=none;html=1;verticalAlign=middle;whiteSpace=wrap;rounded=0;" vertex="1" parent="1">
          <mxGeometry x="240" y="910" width="60" height="30" as="geometry" />
        </mxCell>
        <mxCell id="OLC3-Uj3shSsbxQ3VMCo-12" value="Github link" style="text;strokeColor=none;align=center;fillColor=none;html=1;verticalAlign=middle;whiteSpace=wrap;rounded=0;" vertex="1" parent="1">
          <mxGeometry x="385" y="915" width="50" height="30" as="geometry" />
        </mxCell>
        <mxCell id="OLC3-Uj3shSsbxQ3VMCo-13" value="Facebook Link" style="text;strokeColor=none;align=center;fillColor=none;html=1;verticalAlign=middle;whiteSpace=wrap;rounded=0;" vertex="1" parent="1">
          <mxGeometry x="510" y="915" width="60" height="30" as="geometry" />
        </mxCell>
        <mxCell id="OLC3-Uj3shSsbxQ3VMCo-14" value="Address and telephone number" style="text;strokeColor=none;align=center;fillColor=none;html=1;verticalAlign=middle;whiteSpace=wrap;rounded=0;" vertex="1" parent="1">
          <mxGeometry x="330" y="970" width="170" height="60" as="geometry" />
        </mxCell>
        <mxCell id="OLC3-Uj3shSsbxQ3VMCo-27" value="" style="rounded=0;whiteSpace=wrap;html=1;" vertex="1" parent="1">
          <mxGeometry x="210" y="370" width="400" height="100" as="geometry" />
        </mxCell>
        <mxCell id="OLC3-Uj3shSsbxQ3VMCo-28" value="" style="rounded=0;whiteSpace=wrap;html=1;" vertex="1" parent="1">
          <mxGeometry x="240" y="420" width="340" height="460" as="geometry" />
        </mxCell>
        <mxCell id="pafN4mYzbz05QPzaYbpH-1" value="Who am I&lt;div&gt;&lt;br&gt;&lt;/div&gt;&lt;div&gt;Wite up including resume button attachment&lt;/div&gt;" style="text;strokeColor=none;align=center;fillColor=none;html=1;verticalAlign=middle;whiteSpace=wrap;rounded=0;" vertex="1" parent="1">
          <mxGeometry x="295" y="420" width="230" height="170" as="geometry" />
        </mxCell>
        <mxCell id="_5wkCvLT64VQ5YhKXEkZ-1" value="What I Do&amp;nbsp;&lt;div&gt;&lt;br&gt;&lt;/div&gt;&lt;div&gt;Write Up&lt;/div&gt;" style="text;strokeColor=none;align=center;fillColor=none;html=1;verticalAlign=middle;whiteSpace=wrap;rounded=0;" vertex="1" parent="1">
          <mxGeometry x="305" y="610" width="220" height="150" as="geometry" />
        </mxCell>
      </root>
    </mxGraphModel>
  </diagram>
  <diagram id="w7gA-3Pylz6t6wuEqfYp" name="Page-9">
    <mxGraphModel dx="1434" dy="772" grid="1" gridSize="10" guides="1" tooltips="1" connect="1" arrows="1" fold="1" page="1" pageScale="1" pageWidth="850" pageHeight="1100" math="0" shadow="0">
      <root>
        <mxCell id="0" />
        <mxCell id="1" parent="0" />
        <mxCell id="-1r5ytRsEOSyiZuysnVr-1" value="Mobile Blog Page" style="text;strokeColor=none;align=center;fillColor=none;html=1;verticalAlign=middle;whiteSpace=wrap;rounded=0;" vertex="1" parent="1">
          <mxGeometry x="350" y="10" width="150" height="30" as="geometry" />
        </mxCell>
        <mxCell id="-1r5ytRsEOSyiZuysnVr-2" value="" style="rounded=0;whiteSpace=wrap;html=1;" vertex="1" parent="1">
          <mxGeometry x="210" y="60" width="400" height="300" as="geometry" />
        </mxCell>
        <mxCell id="-1r5ytRsEOSyiZuysnVr-3" value="" style="rounded=0;whiteSpace=wrap;html=1;" vertex="1" parent="1">
          <mxGeometry x="350" y="80" width="120" height="80" as="geometry" />
        </mxCell>
        <mxCell id="-1r5ytRsEOSyiZuysnVr-4" value="LOGO" style="text;strokeColor=none;align=center;fillColor=none;html=1;verticalAlign=middle;whiteSpace=wrap;rounded=0;" vertex="1" parent="1">
          <mxGeometry x="380" y="105" width="60" height="30" as="geometry" />
        </mxCell>
        <mxCell id="-1r5ytRsEOSyiZuysnVr-5" value="Imaginative Computer Services" style="text;strokeColor=none;align=center;fillColor=none;html=1;verticalAlign=middle;whiteSpace=wrap;rounded=0;" vertex="1" parent="1">
          <mxGeometry x="360" y="175" width="100" height="70" as="geometry" />
        </mxCell>
        <mxCell id="-1r5ytRsEOSyiZuysnVr-6" value="Home&amp;nbsp; &amp;nbsp;Services&amp;nbsp; &amp;nbsp; About&amp;nbsp; &amp;nbsp; Blog&amp;nbsp; &amp;nbsp; Contact" style="text;strokeColor=none;align=center;fillColor=none;html=1;verticalAlign=middle;whiteSpace=wrap;rounded=0;" vertex="1" parent="1">
          <mxGeometry x="220" y="320" width="380" height="30" as="geometry" />
        </mxCell>
        <mxCell id="-1r5ytRsEOSyiZuysnVr-7" value="" style="rounded=0;whiteSpace=wrap;html=1;" vertex="1" parent="1">
          <mxGeometry x="210" y="890" width="400" height="140" as="geometry" />
        </mxCell>
        <mxCell id="-1r5ytRsEOSyiZuysnVr-8" value="" style="whiteSpace=wrap;html=1;aspect=fixed;" vertex="1" parent="1">
          <mxGeometry x="240" y="900" width="60" height="60" as="geometry" />
        </mxCell>
        <mxCell id="-1r5ytRsEOSyiZuysnVr-9" value="" style="whiteSpace=wrap;html=1;aspect=fixed;" vertex="1" parent="1">
          <mxGeometry x="380" y="900" width="60" height="60" as="geometry" />
        </mxCell>
        <mxCell id="-1r5ytRsEOSyiZuysnVr-10" value="" style="whiteSpace=wrap;html=1;aspect=fixed;" vertex="1" parent="1">
          <mxGeometry x="510" y="900" width="60" height="60" as="geometry" />
        </mxCell>
        <mxCell id="-1r5ytRsEOSyiZuysnVr-11" value="LinkedIn Link" style="text;strokeColor=none;align=center;fillColor=none;html=1;verticalAlign=middle;whiteSpace=wrap;rounded=0;" vertex="1" parent="1">
          <mxGeometry x="240" y="910" width="60" height="30" as="geometry" />
        </mxCell>
        <mxCell id="-1r5ytRsEOSyiZuysnVr-12" value="Github link" style="text;strokeColor=none;align=center;fillColor=none;html=1;verticalAlign=middle;whiteSpace=wrap;rounded=0;" vertex="1" parent="1">
          <mxGeometry x="385" y="915" width="50" height="30" as="geometry" />
        </mxCell>
        <mxCell id="-1r5ytRsEOSyiZuysnVr-13" value="Facebook Link" style="text;strokeColor=none;align=center;fillColor=none;html=1;verticalAlign=middle;whiteSpace=wrap;rounded=0;" vertex="1" parent="1">
          <mxGeometry x="510" y="915" width="60" height="30" as="geometry" />
        </mxCell>
        <mxCell id="-1r5ytRsEOSyiZuysnVr-14" value="Address and telephone number" style="text;strokeColor=none;align=center;fillColor=none;html=1;verticalAlign=middle;whiteSpace=wrap;rounded=0;" vertex="1" parent="1">
          <mxGeometry x="330" y="970" width="170" height="60" as="geometry" />
        </mxCell>
        <mxCell id="-1r5ytRsEOSyiZuysnVr-19" value="" style="rounded=0;whiteSpace=wrap;html=1;" vertex="1" parent="1">
          <mxGeometry x="420" y="370" width="190" height="510" as="geometry" />
        </mxCell>
        <mxCell id="-1r5ytRsEOSyiZuysnVr-20" value="" style="rounded=0;whiteSpace=wrap;html=1;" vertex="1" parent="1">
          <mxGeometry x="210" y="370" width="200" height="90" as="geometry" />
        </mxCell>
        <mxCell id="-1r5ytRsEOSyiZuysnVr-21" value="" style="rounded=0;whiteSpace=wrap;html=1;" vertex="1" parent="1">
          <mxGeometry x="210" y="470" width="200" height="90" as="geometry" />
        </mxCell>
        <mxCell id="-1r5ytRsEOSyiZuysnVr-22" value="" style="rounded=0;whiteSpace=wrap;html=1;" vertex="1" parent="1">
          <mxGeometry x="210" y="570" width="200" height="90" as="geometry" />
        </mxCell>
        <mxCell id="-1r5ytRsEOSyiZuysnVr-23" value="" style="rounded=0;whiteSpace=wrap;html=1;" vertex="1" parent="1">
          <mxGeometry x="210" y="670" width="200" height="90" as="geometry" />
        </mxCell>
        <mxCell id="-1r5ytRsEOSyiZuysnVr-24" value="" style="rounded=0;whiteSpace=wrap;html=1;" vertex="1" parent="1">
          <mxGeometry x="210" y="770" width="200" height="90" as="geometry" />
        </mxCell>
        <mxCell id="WU242uDkKnTmzpRFhniI-1" value="Blog Post with image and text" style="text;strokeColor=none;align=center;fillColor=none;html=1;verticalAlign=middle;whiteSpace=wrap;rounded=0;" vertex="1" parent="1">
          <mxGeometry x="215" y="400" width="185" height="30" as="geometry" />
        </mxCell>
        <mxCell id="WU242uDkKnTmzpRFhniI-2" value="Blog Post with image and text" style="text;strokeColor=none;align=center;fillColor=none;html=1;verticalAlign=middle;whiteSpace=wrap;rounded=0;" vertex="1" parent="1">
          <mxGeometry x="225" y="500" width="185" height="30" as="geometry" />
        </mxCell>
        <mxCell id="WU242uDkKnTmzpRFhniI-3" value="Blog Post with image and text" style="text;strokeColor=none;align=center;fillColor=none;html=1;verticalAlign=middle;whiteSpace=wrap;rounded=0;" vertex="1" parent="1">
          <mxGeometry x="225" y="600" width="185" height="30" as="geometry" />
        </mxCell>
        <mxCell id="WU242uDkKnTmzpRFhniI-4" value="Blog Post with image and text" style="text;strokeColor=none;align=center;fillColor=none;html=1;verticalAlign=middle;whiteSpace=wrap;rounded=0;" vertex="1" parent="1">
          <mxGeometry x="220" y="700" width="185" height="30" as="geometry" />
        </mxCell>
        <mxCell id="WU242uDkKnTmzpRFhniI-5" value="Blog Post with image and text" style="text;strokeColor=none;align=center;fillColor=none;html=1;verticalAlign=middle;whiteSpace=wrap;rounded=0;" vertex="1" parent="1">
          <mxGeometry x="225" y="800" width="175" height="30" as="geometry" />
        </mxCell>
        <mxCell id="N8JsQc5Lra4suY8tB26c-1" value="Recent Posts with List" style="text;strokeColor=none;align=center;fillColor=none;html=1;verticalAlign=middle;whiteSpace=wrap;rounded=0;" vertex="1" parent="1">
          <mxGeometry x="465" y="410" width="100" height="80" as="geometry" />
        </mxCell>
      </root>
    </mxGraphModel>
  </diagram>
  <diagram id="NSMwVh0BaDVL6AEiQKJj" name="Page-10">
    <mxGraphModel dx="1434" dy="772" grid="1" gridSize="10" guides="1" tooltips="1" connect="1" arrows="1" fold="1" page="1" pageScale="1" pageWidth="850" pageHeight="1100" math="0" shadow="0">
      <root>
        <mxCell id="0" />
        <mxCell id="1" parent="0" />
        <mxCell id="bJBztxj1rbd0i8J2Ww2Y-1" value="Mobile Contact Page" style="text;strokeColor=none;align=center;fillColor=none;html=1;verticalAlign=middle;whiteSpace=wrap;rounded=0;" vertex="1" parent="1">
          <mxGeometry x="350" y="50" width="150" height="30" as="geometry" />
        </mxCell>
        <mxCell id="bJBztxj1rbd0i8J2Ww2Y-2" value="" style="rounded=0;whiteSpace=wrap;html=1;" vertex="1" parent="1">
          <mxGeometry x="210" y="100" width="400" height="300" as="geometry" />
        </mxCell>
        <mxCell id="bJBztxj1rbd0i8J2Ww2Y-3" value="" style="rounded=0;whiteSpace=wrap;html=1;" vertex="1" parent="1">
          <mxGeometry x="350" y="120" width="120" height="80" as="geometry" />
        </mxCell>
        <mxCell id="bJBztxj1rbd0i8J2Ww2Y-4" value="LOGO" style="text;strokeColor=none;align=center;fillColor=none;html=1;verticalAlign=middle;whiteSpace=wrap;rounded=0;" vertex="1" parent="1">
          <mxGeometry x="380" y="145" width="60" height="30" as="geometry" />
        </mxCell>
        <mxCell id="bJBztxj1rbd0i8J2Ww2Y-5" value="Imaginative Computer Services" style="text;strokeColor=none;align=center;fillColor=none;html=1;verticalAlign=middle;whiteSpace=wrap;rounded=0;" vertex="1" parent="1">
          <mxGeometry x="360" y="215" width="100" height="70" as="geometry" />
        </mxCell>
        <mxCell id="bJBztxj1rbd0i8J2Ww2Y-6" value="Home&amp;nbsp; &amp;nbsp;Services&amp;nbsp; &amp;nbsp; About&amp;nbsp; &amp;nbsp; Blog&amp;nbsp; &amp;nbsp; Contact" style="text;strokeColor=none;align=center;fillColor=none;html=1;verticalAlign=middle;whiteSpace=wrap;rounded=0;" vertex="1" parent="1">
          <mxGeometry x="220" y="360" width="380" height="30" as="geometry" />
        </mxCell>
        <mxCell id="bJBztxj1rbd0i8J2Ww2Y-7" value="" style="rounded=0;whiteSpace=wrap;html=1;" vertex="1" parent="1">
          <mxGeometry x="210" y="930" width="400" height="140" as="geometry" />
        </mxCell>
        <mxCell id="bJBztxj1rbd0i8J2Ww2Y-8" value="" style="whiteSpace=wrap;html=1;aspect=fixed;" vertex="1" parent="1">
          <mxGeometry x="240" y="940" width="60" height="60" as="geometry" />
        </mxCell>
        <mxCell id="bJBztxj1rbd0i8J2Ww2Y-9" value="" style="whiteSpace=wrap;html=1;aspect=fixed;" vertex="1" parent="1">
          <mxGeometry x="380" y="940" width="60" height="60" as="geometry" />
        </mxCell>
        <mxCell id="bJBztxj1rbd0i8J2Ww2Y-10" value="" style="whiteSpace=wrap;html=1;aspect=fixed;" vertex="1" parent="1">
          <mxGeometry x="510" y="940" width="60" height="60" as="geometry" />
        </mxCell>
        <mxCell id="bJBztxj1rbd0i8J2Ww2Y-11" value="LinkedIn Link" style="text;strokeColor=none;align=center;fillColor=none;html=1;verticalAlign=middle;whiteSpace=wrap;rounded=0;" vertex="1" parent="1">
          <mxGeometry x="240" y="950" width="60" height="30" as="geometry" />
        </mxCell>
        <mxCell id="bJBztxj1rbd0i8J2Ww2Y-12" value="Github link" style="text;strokeColor=none;align=center;fillColor=none;html=1;verticalAlign=middle;whiteSpace=wrap;rounded=0;" vertex="1" parent="1">
          <mxGeometry x="385" y="955" width="50" height="30" as="geometry" />
        </mxCell>
        <mxCell id="bJBztxj1rbd0i8J2Ww2Y-13" value="Facebook Link" style="text;strokeColor=none;align=center;fillColor=none;html=1;verticalAlign=middle;whiteSpace=wrap;rounded=0;" vertex="1" parent="1">
          <mxGeometry x="510" y="955" width="60" height="30" as="geometry" />
        </mxCell>
        <mxCell id="bJBztxj1rbd0i8J2Ww2Y-14" value="Address and telephone number" style="text;strokeColor=none;align=center;fillColor=none;html=1;verticalAlign=middle;whiteSpace=wrap;rounded=0;" vertex="1" parent="1">
          <mxGeometry x="330" y="1010" width="170" height="60" as="geometry" />
        </mxCell>
        <mxCell id="OO7TeoRn6mw7PD2wbspU-1" value="Contact Us" style="text;strokeColor=none;align=center;fillColor=none;html=1;verticalAlign=middle;whiteSpace=wrap;rounded=0;" vertex="1" parent="1">
          <mxGeometry x="300" y="420" width="230" height="90" as="geometry" />
        </mxCell>
        <mxCell id="OO7TeoRn6mw7PD2wbspU-2" value="" style="rounded=0;whiteSpace=wrap;html=1;" vertex="1" parent="1">
          <mxGeometry x="340" y="545" width="240" height="40" as="geometry" />
        </mxCell>
        <mxCell id="OO7TeoRn6mw7PD2wbspU-3" value="" style="rounded=0;whiteSpace=wrap;html=1;" vertex="1" parent="1">
          <mxGeometry x="340" y="605" width="240" height="40" as="geometry" />
        </mxCell>
        <mxCell id="OO7TeoRn6mw7PD2wbspU-4" value="" style="rounded=0;whiteSpace=wrap;html=1;" vertex="1" parent="1">
          <mxGeometry x="340" y="660" width="240" height="40" as="geometry" />
        </mxCell>
        <mxCell id="OO7TeoRn6mw7PD2wbspU-5" value="" style="rounded=0;whiteSpace=wrap;html=1;" vertex="1" parent="1">
          <mxGeometry x="340" y="720" width="240" height="130" as="geometry" />
        </mxCell>
        <mxCell id="OO7TeoRn6mw7PD2wbspU-6" value="Name" style="text;strokeColor=none;align=center;fillColor=none;html=1;verticalAlign=middle;whiteSpace=wrap;rounded=0;" vertex="1" parent="1">
          <mxGeometry x="240" y="550" width="60" height="30" as="geometry" />
        </mxCell>
        <mxCell id="OO7TeoRn6mw7PD2wbspU-7" value="Email" style="text;strokeColor=none;align=center;fillColor=none;html=1;verticalAlign=middle;whiteSpace=wrap;rounded=0;" vertex="1" parent="1">
          <mxGeometry x="240" y="610" width="60" height="30" as="geometry" />
        </mxCell>
        <mxCell id="OO7TeoRn6mw7PD2wbspU-8" value="Subject" style="text;strokeColor=none;align=center;fillColor=none;html=1;verticalAlign=middle;whiteSpace=wrap;rounded=0;" vertex="1" parent="1">
          <mxGeometry x="240" y="675" width="60" height="30" as="geometry" />
        </mxCell>
        <mxCell id="OO7TeoRn6mw7PD2wbspU-9" value="Description" style="text;strokeColor=none;align=center;fillColor=none;html=1;verticalAlign=middle;whiteSpace=wrap;rounded=0;" vertex="1" parent="1">
          <mxGeometry x="240" y="730" width="60" height="30" as="geometry" />
        </mxCell>
        <mxCell id="OO7TeoRn6mw7PD2wbspU-10" value="" style="rounded=0;whiteSpace=wrap;html=1;" vertex="1" parent="1">
          <mxGeometry x="415" y="860" width="90" height="30" as="geometry" />
        </mxCell>
        <mxCell id="OO7TeoRn6mw7PD2wbspU-11" value="Submit Button" style="text;strokeColor=none;align=center;fillColor=none;html=1;verticalAlign=middle;whiteSpace=wrap;rounded=0;" vertex="1" parent="1">
          <mxGeometry x="425" y="860" width="60" height="30" as="geometry" />
        </mxCell>
      </root>
    </mxGraphModel>
  </diagram>
  <diagram id="pnboH6rQR6xr_m0B95PZ" name="Page-11">
    <mxGraphModel dx="1434" dy="772" grid="1" gridSize="10" guides="1" tooltips="1" connect="1" arrows="1" fold="1" page="1" pageScale="1" pageWidth="850" pageHeight="1100" math="0" shadow="0">
      <root>
        <mxCell id="0" />
        <mxCell id="1" parent="0" />
        <mxCell id="W5Gi53U61bnf-M5CSK3B-1" value="Tablet Homepage" style="text;strokeColor=none;align=center;fillColor=none;html=1;verticalAlign=middle;whiteSpace=wrap;rounded=0;" vertex="1" parent="1">
          <mxGeometry x="340" y="10" width="240" height="40" as="geometry" />
        </mxCell>
        <mxCell id="W5Gi53U61bnf-M5CSK3B-2" value="" style="rounded=0;whiteSpace=wrap;html=1;" vertex="1" parent="1">
          <mxGeometry x="10" y="70" width="840" height="220" as="geometry" />
        </mxCell>
        <mxCell id="W5Gi53U61bnf-M5CSK3B-3" value="LOGO" style="text;strokeColor=none;align=center;fillColor=none;html=1;verticalAlign=middle;whiteSpace=wrap;rounded=0;" vertex="1" parent="1">
          <mxGeometry x="100" y="130" width="60" height="30" as="geometry" />
        </mxCell>
        <mxCell id="W5Gi53U61bnf-M5CSK3B-4" value="" style="whiteSpace=wrap;html=1;aspect=fixed;" vertex="1" parent="1">
          <mxGeometry x="80" y="100" width="100" height="100" as="geometry" />
        </mxCell>
        <mxCell id="W5Gi53U61bnf-M5CSK3B-5" value="Imaginative Computer Services" style="text;strokeColor=none;align=center;fillColor=none;html=1;verticalAlign=middle;whiteSpace=wrap;rounded=0;" vertex="1" parent="1">
          <mxGeometry x="50" y="240" width="210" height="30" as="geometry" />
        </mxCell>
        <mxCell id="W5Gi53U61bnf-M5CSK3B-6" value="Home&amp;nbsp; About Services Blog Contact" style="text;strokeColor=none;align=center;fillColor=none;html=1;verticalAlign=middle;whiteSpace=wrap;rounded=0;" vertex="1" parent="1">
          <mxGeometry x="410" y="240" width="520" height="30" as="geometry" />
        </mxCell>
        <mxCell id="W5Gi53U61bnf-M5CSK3B-7" value="LOGO" style="text;strokeColor=none;align=center;fillColor=none;html=1;verticalAlign=middle;whiteSpace=wrap;rounded=0;" vertex="1" parent="1">
          <mxGeometry x="100" y="135" width="60" height="30" as="geometry" />
        </mxCell>
        <mxCell id="W5Gi53U61bnf-M5CSK3B-8" value="" style="rounded=0;whiteSpace=wrap;html=1;" vertex="1" parent="1">
          <mxGeometry x="10" y="310" width="840" height="350" as="geometry" />
        </mxCell>
        <mxCell id="W5Gi53U61bnf-M5CSK3B-9" value="Feature image in this box" style="text;strokeColor=none;align=center;fillColor=none;html=1;verticalAlign=middle;whiteSpace=wrap;rounded=0;" vertex="1" parent="1">
          <mxGeometry x="350" y="330" width="150" height="30" as="geometry" />
        </mxCell>
        <mxCell id="W5Gi53U61bnf-M5CSK3B-10" value="Imaginative Computer services&amp;nbsp;" style="text;strokeColor=none;align=center;fillColor=none;html=1;verticalAlign=middle;whiteSpace=wrap;rounded=0;" vertex="1" parent="1">
          <mxGeometry x="320" y="420" width="220" height="110" as="geometry" />
        </mxCell>
        <mxCell id="W5Gi53U61bnf-M5CSK3B-11" value="" style="rounded=0;whiteSpace=wrap;html=1;" vertex="1" parent="1">
          <mxGeometry x="10" y="680" width="840" height="220" as="geometry" />
        </mxCell>
        <mxCell id="W5Gi53U61bnf-M5CSK3B-12" value="Write up about self and services" style="text;strokeColor=none;align=center;fillColor=none;html=1;verticalAlign=middle;whiteSpace=wrap;rounded=0;" vertex="1" parent="1">
          <mxGeometry x="320" y="760" width="210" height="30" as="geometry" />
        </mxCell>
        <mxCell id="W5Gi53U61bnf-M5CSK3B-13" value="" style="rounded=0;whiteSpace=wrap;html=1;" vertex="1" parent="1">
          <mxGeometry x="10" y="920" width="840" height="160" as="geometry" />
        </mxCell>
        <mxCell id="W5Gi53U61bnf-M5CSK3B-14" value="" style="whiteSpace=wrap;html=1;aspect=fixed;" vertex="1" parent="1">
          <mxGeometry x="30" y="930" width="50" height="50" as="geometry" />
        </mxCell>
        <mxCell id="W5Gi53U61bnf-M5CSK3B-15" value="" style="whiteSpace=wrap;html=1;aspect=fixed;" vertex="1" parent="1">
          <mxGeometry x="380" y="930" width="50" height="50" as="geometry" />
        </mxCell>
        <mxCell id="W5Gi53U61bnf-M5CSK3B-16" value="" style="whiteSpace=wrap;html=1;aspect=fixed;" vertex="1" parent="1">
          <mxGeometry x="760" y="920" width="60" height="60" as="geometry" />
        </mxCell>
        <mxCell id="W5Gi53U61bnf-M5CSK3B-17" value="LinkedIn link" style="text;strokeColor=none;align=center;fillColor=none;html=1;verticalAlign=middle;whiteSpace=wrap;rounded=0;" vertex="1" parent="1">
          <mxGeometry x="25" y="940" width="60" height="30" as="geometry" />
        </mxCell>
        <mxCell id="W5Gi53U61bnf-M5CSK3B-18" value="github Link" style="text;strokeColor=none;align=center;fillColor=none;html=1;verticalAlign=middle;whiteSpace=wrap;rounded=0;" vertex="1" parent="1">
          <mxGeometry x="375" y="935" width="60" height="30" as="geometry" />
        </mxCell>
        <mxCell id="W5Gi53U61bnf-M5CSK3B-19" value="Facebook Link" style="text;strokeColor=none;align=center;fillColor=none;html=1;verticalAlign=middle;whiteSpace=wrap;rounded=0;" vertex="1" parent="1">
          <mxGeometry x="760" y="935" width="60" height="30" as="geometry" />
        </mxCell>
        <mxCell id="W5Gi53U61bnf-M5CSK3B-20" value="Address and telephone number" style="text;strokeColor=none;align=center;fillColor=none;html=1;verticalAlign=middle;whiteSpace=wrap;rounded=0;" vertex="1" parent="1">
          <mxGeometry x="320" y="1000" width="170" height="60" as="geometry" />
        </mxCell>
      </root>
    </mxGraphModel>
  </diagram>
  <diagram id="1pwYwXysrhwm3lJBxN-7" name="Page-12">
    <mxGraphModel dx="1434" dy="772" grid="1" gridSize="10" guides="1" tooltips="1" connect="1" arrows="1" fold="1" page="1" pageScale="1" pageWidth="850" pageHeight="1100" math="0" shadow="0">
      <root>
        <mxCell id="0" />
        <mxCell id="1" parent="0" />
        <mxCell id="8k3f_yKAPpw5ZT7k-zeM-1" value="" style="rounded=0;whiteSpace=wrap;html=1;" vertex="1" parent="1">
          <mxGeometry x="10" y="70" width="840" height="220" as="geometry" />
        </mxCell>
        <mxCell id="8k3f_yKAPpw5ZT7k-zeM-2" value="LOGO" style="text;strokeColor=none;align=center;fillColor=none;html=1;verticalAlign=middle;whiteSpace=wrap;rounded=0;" vertex="1" parent="1">
          <mxGeometry x="100" y="130" width="60" height="30" as="geometry" />
        </mxCell>
        <mxCell id="8k3f_yKAPpw5ZT7k-zeM-3" value="" style="whiteSpace=wrap;html=1;aspect=fixed;" vertex="1" parent="1">
          <mxGeometry x="80" y="100" width="100" height="100" as="geometry" />
        </mxCell>
        <mxCell id="8k3f_yKAPpw5ZT7k-zeM-4" value="Imaginative Computer Services" style="text;strokeColor=none;align=center;fillColor=none;html=1;verticalAlign=middle;whiteSpace=wrap;rounded=0;" vertex="1" parent="1">
          <mxGeometry x="50" y="240" width="210" height="30" as="geometry" />
        </mxCell>
        <mxCell id="8k3f_yKAPpw5ZT7k-zeM-5" value="LOGO" style="text;strokeColor=none;align=center;fillColor=none;html=1;verticalAlign=middle;whiteSpace=wrap;rounded=0;" vertex="1" parent="1">
          <mxGeometry x="100" y="135" width="60" height="30" as="geometry" />
        </mxCell>
        <mxCell id="8k3f_yKAPpw5ZT7k-zeM-7" value="" style="rounded=0;whiteSpace=wrap;html=1;" vertex="1" parent="1">
          <mxGeometry x="10" y="920" width="840" height="160" as="geometry" />
        </mxCell>
        <mxCell id="8k3f_yKAPpw5ZT7k-zeM-8" value="" style="whiteSpace=wrap;html=1;aspect=fixed;" vertex="1" parent="1">
          <mxGeometry x="30" y="930" width="50" height="50" as="geometry" />
        </mxCell>
        <mxCell id="8k3f_yKAPpw5ZT7k-zeM-9" value="" style="whiteSpace=wrap;html=1;aspect=fixed;" vertex="1" parent="1">
          <mxGeometry x="380" y="930" width="50" height="50" as="geometry" />
        </mxCell>
        <mxCell id="8k3f_yKAPpw5ZT7k-zeM-10" value="" style="whiteSpace=wrap;html=1;aspect=fixed;" vertex="1" parent="1">
          <mxGeometry x="760" y="920" width="60" height="60" as="geometry" />
        </mxCell>
        <mxCell id="8k3f_yKAPpw5ZT7k-zeM-11" value="LinkedIn link" style="text;strokeColor=none;align=center;fillColor=none;html=1;verticalAlign=middle;whiteSpace=wrap;rounded=0;" vertex="1" parent="1">
          <mxGeometry x="25" y="940" width="60" height="30" as="geometry" />
        </mxCell>
        <mxCell id="8k3f_yKAPpw5ZT7k-zeM-12" value="github Link" style="text;strokeColor=none;align=center;fillColor=none;html=1;verticalAlign=middle;whiteSpace=wrap;rounded=0;" vertex="1" parent="1">
          <mxGeometry x="375" y="935" width="60" height="30" as="geometry" />
        </mxCell>
        <mxCell id="8k3f_yKAPpw5ZT7k-zeM-13" value="Facebook Link" style="text;strokeColor=none;align=center;fillColor=none;html=1;verticalAlign=middle;whiteSpace=wrap;rounded=0;" vertex="1" parent="1">
          <mxGeometry x="760" y="935" width="60" height="30" as="geometry" />
        </mxCell>
        <mxCell id="8k3f_yKAPpw5ZT7k-zeM-14" value="Address and telephone number" style="text;strokeColor=none;align=center;fillColor=none;html=1;verticalAlign=middle;whiteSpace=wrap;rounded=0;" vertex="1" parent="1">
          <mxGeometry x="320" y="1000" width="170" height="60" as="geometry" />
        </mxCell>
        <mxCell id="8k3f_yKAPpw5ZT7k-zeM-15" value="Home&amp;nbsp; &amp;nbsp;Services&amp;nbsp; &amp;nbsp;About&amp;nbsp; &amp;nbsp; Blog&amp;nbsp; &amp;nbsp; &amp;nbsp;Contact" style="text;strokeColor=none;align=center;fillColor=none;html=1;verticalAlign=middle;whiteSpace=wrap;rounded=0;" vertex="1" parent="1">
          <mxGeometry x="420" y="240" width="400" height="30" as="geometry" />
        </mxCell>
        <mxCell id="8k3f_yKAPpw5ZT7k-zeM-16" value="Tablet Services Page" style="text;strokeColor=none;align=center;fillColor=none;html=1;verticalAlign=middle;whiteSpace=wrap;rounded=0;" vertex="1" parent="1">
          <mxGeometry x="310" y="10" width="220" height="30" as="geometry" />
        </mxCell>
        <mxCell id="8k3f_yKAPpw5ZT7k-zeM-17" value="" style="whiteSpace=wrap;html=1;aspect=fixed;" vertex="1" parent="1">
          <mxGeometry x="160" y="390" width="200" height="200" as="geometry" />
        </mxCell>
        <mxCell id="8k3f_yKAPpw5ZT7k-zeM-18" value="" style="whiteSpace=wrap;html=1;aspect=fixed;" vertex="1" parent="1">
          <mxGeometry x="495" y="390" width="200" height="200" as="geometry" />
        </mxCell>
        <mxCell id="8k3f_yKAPpw5ZT7k-zeM-19" value="" style="whiteSpace=wrap;html=1;aspect=fixed;" vertex="1" parent="1">
          <mxGeometry x="330" y="650" width="200" height="200" as="geometry" />
        </mxCell>
        <mxCell id="8k3f_yKAPpw5ZT7k-zeM-20" value="" style="rounded=0;whiteSpace=wrap;html=1;" vertex="1" parent="1">
          <mxGeometry x="160" y="520" width="200" height="70" as="geometry" />
        </mxCell>
        <mxCell id="8k3f_yKAPpw5ZT7k-zeM-21" value="" style="rounded=0;whiteSpace=wrap;html=1;" vertex="1" parent="1">
          <mxGeometry x="495" y="520" width="200" height="70" as="geometry" />
        </mxCell>
        <mxCell id="8k3f_yKAPpw5ZT7k-zeM-22" value="" style="rounded=0;whiteSpace=wrap;html=1;" vertex="1" parent="1">
          <mxGeometry x="330" y="780" width="200" height="70" as="geometry" />
        </mxCell>
        <mxCell id="8k3f_yKAPpw5ZT7k-zeM-23" value="Web Development" style="text;strokeColor=none;align=center;fillColor=none;html=1;verticalAlign=middle;whiteSpace=wrap;rounded=0;" vertex="1" parent="1">
          <mxGeometry x="200" y="540" width="130" height="30" as="geometry" />
        </mxCell>
        <mxCell id="8k3f_yKAPpw5ZT7k-zeM-24" value="Website Traffic" style="text;strokeColor=none;align=center;fillColor=none;html=1;verticalAlign=middle;whiteSpace=wrap;rounded=0;" vertex="1" parent="1">
          <mxGeometry x="540" y="540" width="130" height="30" as="geometry" />
        </mxCell>
        <mxCell id="8k3f_yKAPpw5ZT7k-zeM-25" value="Graphic Design" style="text;strokeColor=none;align=center;fillColor=none;html=1;verticalAlign=middle;whiteSpace=wrap;rounded=0;" vertex="1" parent="1">
          <mxGeometry x="385" y="800" width="110" height="30" as="geometry" />
        </mxCell>
        <mxCell id="0SqOs1GveLYOxReO1d0A-1" value="Image here" style="text;strokeColor=none;align=center;fillColor=none;html=1;verticalAlign=middle;whiteSpace=wrap;rounded=0;" vertex="1" parent="1">
          <mxGeometry x="390" y="700" width="80" height="30" as="geometry" />
        </mxCell>
        <mxCell id="0SqOs1GveLYOxReO1d0A-2" value="Image here" style="text;strokeColor=none;align=center;fillColor=none;html=1;verticalAlign=middle;whiteSpace=wrap;rounded=0;" vertex="1" parent="1">
          <mxGeometry x="555" y="450" width="80" height="30" as="geometry" />
        </mxCell>
        <mxCell id="0SqOs1GveLYOxReO1d0A-3" value="Image here" style="text;strokeColor=none;align=center;fillColor=none;html=1;verticalAlign=middle;whiteSpace=wrap;rounded=0;" vertex="1" parent="1">
          <mxGeometry x="220" y="440" width="80" height="30" as="geometry" />
        </mxCell>
      </root>
    </mxGraphModel>
  </diagram>
  <diagram id="DQMKmH2Pt982SJ1BBerb" name="Page-13">
    <mxGraphModel dx="1434" dy="772" grid="1" gridSize="10" guides="1" tooltips="1" connect="1" arrows="1" fold="1" page="1" pageScale="1" pageWidth="850" pageHeight="1100" math="0" shadow="0">
      <root>
        <mxCell id="0" />
        <mxCell id="1" parent="0" />
        <mxCell id="Aa6MQ5wcyr2DwTAtblnD-1" value="" style="rounded=0;whiteSpace=wrap;html=1;" vertex="1" parent="1">
          <mxGeometry x="10" y="70" width="840" height="220" as="geometry" />
        </mxCell>
        <mxCell id="Aa6MQ5wcyr2DwTAtblnD-2" value="LOGO" style="text;strokeColor=none;align=center;fillColor=none;html=1;verticalAlign=middle;whiteSpace=wrap;rounded=0;" vertex="1" parent="1">
          <mxGeometry x="100" y="130" width="60" height="30" as="geometry" />
        </mxCell>
        <mxCell id="Aa6MQ5wcyr2DwTAtblnD-3" value="" style="whiteSpace=wrap;html=1;aspect=fixed;" vertex="1" parent="1">
          <mxGeometry x="80" y="100" width="100" height="100" as="geometry" />
        </mxCell>
        <mxCell id="Aa6MQ5wcyr2DwTAtblnD-4" value="Imaginative Computer Services" style="text;strokeColor=none;align=center;fillColor=none;html=1;verticalAlign=middle;whiteSpace=wrap;rounded=0;" vertex="1" parent="1">
          <mxGeometry x="50" y="240" width="210" height="30" as="geometry" />
        </mxCell>
        <mxCell id="Aa6MQ5wcyr2DwTAtblnD-5" value="LOGO" style="text;strokeColor=none;align=center;fillColor=none;html=1;verticalAlign=middle;whiteSpace=wrap;rounded=0;" vertex="1" parent="1">
          <mxGeometry x="100" y="135" width="60" height="30" as="geometry" />
        </mxCell>
        <mxCell id="Aa6MQ5wcyr2DwTAtblnD-6" value="" style="rounded=0;whiteSpace=wrap;html=1;" vertex="1" parent="1">
          <mxGeometry x="10" y="300" width="840" height="90" as="geometry" />
        </mxCell>
        <mxCell id="Aa6MQ5wcyr2DwTAtblnD-7" value="" style="rounded=0;whiteSpace=wrap;html=1;" vertex="1" parent="1">
          <mxGeometry x="10" y="920" width="840" height="160" as="geometry" />
        </mxCell>
        <mxCell id="Aa6MQ5wcyr2DwTAtblnD-8" value="" style="whiteSpace=wrap;html=1;aspect=fixed;" vertex="1" parent="1">
          <mxGeometry x="30" y="930" width="50" height="50" as="geometry" />
        </mxCell>
        <mxCell id="Aa6MQ5wcyr2DwTAtblnD-9" value="" style="whiteSpace=wrap;html=1;aspect=fixed;" vertex="1" parent="1">
          <mxGeometry x="380" y="930" width="50" height="50" as="geometry" />
        </mxCell>
        <mxCell id="Aa6MQ5wcyr2DwTAtblnD-10" value="" style="whiteSpace=wrap;html=1;aspect=fixed;" vertex="1" parent="1">
          <mxGeometry x="760" y="920" width="60" height="60" as="geometry" />
        </mxCell>
        <mxCell id="Aa6MQ5wcyr2DwTAtblnD-11" value="LinkedIn link" style="text;strokeColor=none;align=center;fillColor=none;html=1;verticalAlign=middle;whiteSpace=wrap;rounded=0;" vertex="1" parent="1">
          <mxGeometry x="25" y="940" width="60" height="30" as="geometry" />
        </mxCell>
        <mxCell id="Aa6MQ5wcyr2DwTAtblnD-12" value="github Link" style="text;strokeColor=none;align=center;fillColor=none;html=1;verticalAlign=middle;whiteSpace=wrap;rounded=0;" vertex="1" parent="1">
          <mxGeometry x="375" y="935" width="60" height="30" as="geometry" />
        </mxCell>
        <mxCell id="Aa6MQ5wcyr2DwTAtblnD-13" value="Facebook Link" style="text;strokeColor=none;align=center;fillColor=none;html=1;verticalAlign=middle;whiteSpace=wrap;rounded=0;" vertex="1" parent="1">
          <mxGeometry x="760" y="935" width="60" height="30" as="geometry" />
        </mxCell>
        <mxCell id="Aa6MQ5wcyr2DwTAtblnD-14" value="Address and telephone number" style="text;strokeColor=none;align=center;fillColor=none;html=1;verticalAlign=middle;whiteSpace=wrap;rounded=0;" vertex="1" parent="1">
          <mxGeometry x="320" y="1000" width="170" height="60" as="geometry" />
        </mxCell>
        <mxCell id="Aa6MQ5wcyr2DwTAtblnD-15" value="Home&amp;nbsp; &amp;nbsp;Services&amp;nbsp; &amp;nbsp;About&amp;nbsp; &amp;nbsp; Blog&amp;nbsp; &amp;nbsp; &amp;nbsp;Contact" style="text;strokeColor=none;align=center;fillColor=none;html=1;verticalAlign=middle;whiteSpace=wrap;rounded=0;" vertex="1" parent="1">
          <mxGeometry x="420" y="240" width="400" height="30" as="geometry" />
        </mxCell>
        <mxCell id="Aa6MQ5wcyr2DwTAtblnD-16" value="Tablet About Page" style="text;strokeColor=none;align=center;fillColor=none;html=1;verticalAlign=middle;whiteSpace=wrap;rounded=0;" vertex="1" parent="1">
          <mxGeometry x="330" y="10" width="190" height="30" as="geometry" />
        </mxCell>
        <mxCell id="Aa6MQ5wcyr2DwTAtblnD-17" value="" style="rounded=0;whiteSpace=wrap;html=1;" vertex="1" parent="1">
          <mxGeometry x="60" y="350" width="720" height="560" as="geometry" />
        </mxCell>
        <mxCell id="Aa6MQ5wcyr2DwTAtblnD-18" value="Who am I&lt;div&gt;&lt;br&gt;&lt;/div&gt;&lt;div&gt;Wite up including resume button attachment&lt;/div&gt;" style="text;strokeColor=none;align=center;fillColor=none;html=1;verticalAlign=middle;whiteSpace=wrap;rounded=0;" vertex="1" parent="1">
          <mxGeometry x="300" y="380" width="230" height="240" as="geometry" />
        </mxCell>
        <mxCell id="Aa6MQ5wcyr2DwTAtblnD-19" value="What I Do&amp;nbsp;&lt;div&gt;&lt;br&gt;&lt;/div&gt;&lt;div&gt;Write Up&lt;/div&gt;" style="text;strokeColor=none;align=center;fillColor=none;html=1;verticalAlign=middle;whiteSpace=wrap;rounded=0;" vertex="1" parent="1">
          <mxGeometry x="300" y="630" width="220" height="150" as="geometry" />
        </mxCell>
      </root>
    </mxGraphModel>
  </diagram>
  <diagram id="jddkgmDMkPDYS9iEqxsg" name="Page-14">
    <mxGraphModel dx="1434" dy="772" grid="1" gridSize="10" guides="1" tooltips="1" connect="1" arrows="1" fold="1" page="1" pageScale="1" pageWidth="850" pageHeight="1100" math="0" shadow="0">
      <root>
        <mxCell id="0" />
        <mxCell id="1" parent="0" />
        <mxCell id="25Clx348iYYvwsGh2IS8-1" value="" style="rounded=0;whiteSpace=wrap;html=1;" vertex="1" parent="1">
          <mxGeometry x="10" y="70" width="840" height="220" as="geometry" />
        </mxCell>
        <mxCell id="25Clx348iYYvwsGh2IS8-2" value="LOGO" style="text;strokeColor=none;align=center;fillColor=none;html=1;verticalAlign=middle;whiteSpace=wrap;rounded=0;" vertex="1" parent="1">
          <mxGeometry x="100" y="130" width="60" height="30" as="geometry" />
        </mxCell>
        <mxCell id="25Clx348iYYvwsGh2IS8-3" value="" style="whiteSpace=wrap;html=1;aspect=fixed;" vertex="1" parent="1">
          <mxGeometry x="80" y="100" width="100" height="100" as="geometry" />
        </mxCell>
        <mxCell id="25Clx348iYYvwsGh2IS8-4" value="Imaginative Computer Services" style="text;strokeColor=none;align=center;fillColor=none;html=1;verticalAlign=middle;whiteSpace=wrap;rounded=0;" vertex="1" parent="1">
          <mxGeometry x="50" y="240" width="210" height="30" as="geometry" />
        </mxCell>
        <mxCell id="25Clx348iYYvwsGh2IS8-5" value="LOGO" style="text;strokeColor=none;align=center;fillColor=none;html=1;verticalAlign=middle;whiteSpace=wrap;rounded=0;" vertex="1" parent="1">
          <mxGeometry x="100" y="135" width="60" height="30" as="geometry" />
        </mxCell>
        <mxCell id="25Clx348iYYvwsGh2IS8-6" value="" style="rounded=0;whiteSpace=wrap;html=1;" vertex="1" parent="1">
          <mxGeometry x="10" y="920" width="840" height="160" as="geometry" />
        </mxCell>
        <mxCell id="25Clx348iYYvwsGh2IS8-7" value="" style="whiteSpace=wrap;html=1;aspect=fixed;" vertex="1" parent="1">
          <mxGeometry x="30" y="930" width="50" height="50" as="geometry" />
        </mxCell>
        <mxCell id="25Clx348iYYvwsGh2IS8-8" value="" style="whiteSpace=wrap;html=1;aspect=fixed;" vertex="1" parent="1">
          <mxGeometry x="380" y="930" width="50" height="50" as="geometry" />
        </mxCell>
        <mxCell id="25Clx348iYYvwsGh2IS8-9" value="" style="whiteSpace=wrap;html=1;aspect=fixed;" vertex="1" parent="1">
          <mxGeometry x="750" y="925" width="60" height="60" as="geometry" />
        </mxCell>
        <mxCell id="25Clx348iYYvwsGh2IS8-10" value="LinkedIn link" style="text;strokeColor=none;align=center;fillColor=none;html=1;verticalAlign=middle;whiteSpace=wrap;rounded=0;" vertex="1" parent="1">
          <mxGeometry x="25" y="940" width="60" height="30" as="geometry" />
        </mxCell>
        <mxCell id="25Clx348iYYvwsGh2IS8-11" value="github Link" style="text;strokeColor=none;align=center;fillColor=none;html=1;verticalAlign=middle;whiteSpace=wrap;rounded=0;" vertex="1" parent="1">
          <mxGeometry x="375" y="935" width="60" height="30" as="geometry" />
        </mxCell>
        <mxCell id="25Clx348iYYvwsGh2IS8-12" value="Facebook Link" style="text;strokeColor=none;align=center;fillColor=none;html=1;verticalAlign=middle;whiteSpace=wrap;rounded=0;" vertex="1" parent="1">
          <mxGeometry x="750" y="935" width="60" height="30" as="geometry" />
        </mxCell>
        <mxCell id="25Clx348iYYvwsGh2IS8-13" value="Address and telephone number" style="text;strokeColor=none;align=center;fillColor=none;html=1;verticalAlign=middle;whiteSpace=wrap;rounded=0;" vertex="1" parent="1">
          <mxGeometry x="320" y="1000" width="170" height="60" as="geometry" />
        </mxCell>
        <mxCell id="25Clx348iYYvwsGh2IS8-14" value="Home&amp;nbsp; &amp;nbsp;Services&amp;nbsp; &amp;nbsp;About&amp;nbsp; &amp;nbsp; Blog&amp;nbsp; &amp;nbsp; &amp;nbsp;Contact" style="text;strokeColor=none;align=center;fillColor=none;html=1;verticalAlign=middle;whiteSpace=wrap;rounded=0;" vertex="1" parent="1">
          <mxGeometry x="420" y="240" width="400" height="30" as="geometry" />
        </mxCell>
        <mxCell id="25Clx348iYYvwsGh2IS8-15" value="Tablet Blog Page" style="text;strokeColor=none;align=center;fillColor=none;html=1;verticalAlign=middle;whiteSpace=wrap;rounded=0;" vertex="1" parent="1">
          <mxGeometry x="310" y="10" width="220" height="30" as="geometry" />
        </mxCell>
        <mxCell id="25Clx348iYYvwsGh2IS8-16" value="" style="rounded=0;whiteSpace=wrap;html=1;" vertex="1" parent="1">
          <mxGeometry x="520" y="300" width="320" height="610" as="geometry" />
        </mxCell>
        <mxCell id="25Clx348iYYvwsGh2IS8-17" value="Recent Posts with List" style="text;strokeColor=none;align=center;fillColor=none;html=1;verticalAlign=middle;whiteSpace=wrap;rounded=0;" vertex="1" parent="1">
          <mxGeometry x="630" y="330" width="100" height="80" as="geometry" />
        </mxCell>
        <mxCell id="25Clx348iYYvwsGh2IS8-18" value="" style="rounded=0;whiteSpace=wrap;html=1;" vertex="1" parent="1">
          <mxGeometry x="10" y="300" width="500" height="110" as="geometry" />
        </mxCell>
        <mxCell id="25Clx348iYYvwsGh2IS8-19" value="" style="rounded=0;whiteSpace=wrap;html=1;" vertex="1" parent="1">
          <mxGeometry x="10" y="420" width="500" height="110" as="geometry" />
        </mxCell>
        <mxCell id="25Clx348iYYvwsGh2IS8-20" value="" style="rounded=0;whiteSpace=wrap;html=1;" vertex="1" parent="1">
          <mxGeometry x="10" y="540" width="500" height="110" as="geometry" />
        </mxCell>
        <mxCell id="25Clx348iYYvwsGh2IS8-21" value="" style="rounded=0;whiteSpace=wrap;html=1;" vertex="1" parent="1">
          <mxGeometry x="10" y="660" width="500" height="110" as="geometry" />
        </mxCell>
        <mxCell id="25Clx348iYYvwsGh2IS8-22" value="" style="rounded=0;whiteSpace=wrap;html=1;" vertex="1" parent="1">
          <mxGeometry x="10" y="780" width="500" height="110" as="geometry" />
        </mxCell>
        <mxCell id="25Clx348iYYvwsGh2IS8-23" value="Blog Post with image and text" style="text;strokeColor=none;align=center;fillColor=none;html=1;verticalAlign=middle;whiteSpace=wrap;rounded=0;" vertex="1" parent="1">
          <mxGeometry x="155" y="580" width="220" height="30" as="geometry" />
        </mxCell>
        <mxCell id="25Clx348iYYvwsGh2IS8-24" value="Blog Post with image and text" style="text;strokeColor=none;align=center;fillColor=none;html=1;verticalAlign=middle;whiteSpace=wrap;rounded=0;" vertex="1" parent="1">
          <mxGeometry x="150" y="460" width="220" height="30" as="geometry" />
        </mxCell>
        <mxCell id="25Clx348iYYvwsGh2IS8-25" value="Blog Post with image and text" style="text;strokeColor=none;align=center;fillColor=none;html=1;verticalAlign=middle;whiteSpace=wrap;rounded=0;" vertex="1" parent="1">
          <mxGeometry x="150" y="350" width="220" height="30" as="geometry" />
        </mxCell>
        <mxCell id="25Clx348iYYvwsGh2IS8-26" value="Blog Post with image and text" style="text;strokeColor=none;align=center;fillColor=none;html=1;verticalAlign=middle;whiteSpace=wrap;rounded=0;" vertex="1" parent="1">
          <mxGeometry x="155" y="690" width="220" height="30" as="geometry" />
        </mxCell>
        <mxCell id="25Clx348iYYvwsGh2IS8-27" value="Blog Post with image and text" style="text;strokeColor=none;align=center;fillColor=none;html=1;verticalAlign=middle;whiteSpace=wrap;rounded=0;" vertex="1" parent="1">
          <mxGeometry x="150" y="810" width="220" height="30" as="geometry" />
        </mxCell>
      </root>
    </mxGraphModel>
  </diagram>
  <diagram id="vBincBNOCpIcl2CLMmQS" name="Page-15">
    <mxGraphModel dx="1434" dy="772" grid="1" gridSize="10" guides="1" tooltips="1" connect="1" arrows="1" fold="1" page="1" pageScale="1" pageWidth="850" pageHeight="1100" math="0" shadow="0">
      <root>
        <mxCell id="0" />
        <mxCell id="1" parent="0" />
        <mxCell id="8i_bpz5KxnzMuLLQLT8q-1" value="" style="rounded=0;whiteSpace=wrap;html=1;" vertex="1" parent="1">
          <mxGeometry x="10" y="70" width="840" height="220" as="geometry" />
        </mxCell>
        <mxCell id="8i_bpz5KxnzMuLLQLT8q-2" value="LOGO" style="text;strokeColor=none;align=center;fillColor=none;html=1;verticalAlign=middle;whiteSpace=wrap;rounded=0;" vertex="1" parent="1">
          <mxGeometry x="100" y="130" width="60" height="30" as="geometry" />
        </mxCell>
        <mxCell id="8i_bpz5KxnzMuLLQLT8q-3" value="" style="whiteSpace=wrap;html=1;aspect=fixed;" vertex="1" parent="1">
          <mxGeometry x="80" y="100" width="100" height="100" as="geometry" />
        </mxCell>
        <mxCell id="8i_bpz5KxnzMuLLQLT8q-4" value="Imaginative Computer Services" style="text;strokeColor=none;align=center;fillColor=none;html=1;verticalAlign=middle;whiteSpace=wrap;rounded=0;" vertex="1" parent="1">
          <mxGeometry x="50" y="240" width="210" height="30" as="geometry" />
        </mxCell>
        <mxCell id="8i_bpz5KxnzMuLLQLT8q-5" value="LOGO" style="text;strokeColor=none;align=center;fillColor=none;html=1;verticalAlign=middle;whiteSpace=wrap;rounded=0;" vertex="1" parent="1">
          <mxGeometry x="100" y="135" width="60" height="30" as="geometry" />
        </mxCell>
        <mxCell id="8i_bpz5KxnzMuLLQLT8q-6" value="" style="rounded=0;whiteSpace=wrap;html=1;" vertex="1" parent="1">
          <mxGeometry x="10" y="920" width="840" height="160" as="geometry" />
        </mxCell>
        <mxCell id="8i_bpz5KxnzMuLLQLT8q-7" value="" style="whiteSpace=wrap;html=1;aspect=fixed;" vertex="1" parent="1">
          <mxGeometry x="30" y="930" width="50" height="50" as="geometry" />
        </mxCell>
        <mxCell id="8i_bpz5KxnzMuLLQLT8q-8" value="" style="whiteSpace=wrap;html=1;aspect=fixed;" vertex="1" parent="1">
          <mxGeometry x="380" y="930" width="50" height="50" as="geometry" />
        </mxCell>
        <mxCell id="8i_bpz5KxnzMuLLQLT8q-9" value="" style="whiteSpace=wrap;html=1;aspect=fixed;" vertex="1" parent="1">
          <mxGeometry x="760" y="920" width="60" height="60" as="geometry" />
        </mxCell>
        <mxCell id="8i_bpz5KxnzMuLLQLT8q-10" value="LinkedIn link" style="text;strokeColor=none;align=center;fillColor=none;html=1;verticalAlign=middle;whiteSpace=wrap;rounded=0;" vertex="1" parent="1">
          <mxGeometry x="25" y="940" width="60" height="30" as="geometry" />
        </mxCell>
        <mxCell id="8i_bpz5KxnzMuLLQLT8q-11" value="github Link" style="text;strokeColor=none;align=center;fillColor=none;html=1;verticalAlign=middle;whiteSpace=wrap;rounded=0;" vertex="1" parent="1">
          <mxGeometry x="375" y="935" width="60" height="30" as="geometry" />
        </mxCell>
        <mxCell id="8i_bpz5KxnzMuLLQLT8q-12" value="Facebook Link" style="text;strokeColor=none;align=center;fillColor=none;html=1;verticalAlign=middle;whiteSpace=wrap;rounded=0;" vertex="1" parent="1">
          <mxGeometry x="760" y="935" width="60" height="30" as="geometry" />
        </mxCell>
        <mxCell id="8i_bpz5KxnzMuLLQLT8q-13" value="Address and telephone number" style="text;strokeColor=none;align=center;fillColor=none;html=1;verticalAlign=middle;whiteSpace=wrap;rounded=0;" vertex="1" parent="1">
          <mxGeometry x="320" y="1000" width="170" height="60" as="geometry" />
        </mxCell>
        <mxCell id="8i_bpz5KxnzMuLLQLT8q-14" value="Home&amp;nbsp; &amp;nbsp;Services&amp;nbsp; &amp;nbsp;About&amp;nbsp; &amp;nbsp; Blog&amp;nbsp; &amp;nbsp; &amp;nbsp;Contact" style="text;strokeColor=none;align=center;fillColor=none;html=1;verticalAlign=middle;whiteSpace=wrap;rounded=0;" vertex="1" parent="1">
          <mxGeometry x="420" y="240" width="400" height="30" as="geometry" />
        </mxCell>
        <mxCell id="8i_bpz5KxnzMuLLQLT8q-15" value="Tablet Contact Page" style="text;strokeColor=none;align=center;fillColor=none;html=1;verticalAlign=middle;whiteSpace=wrap;rounded=0;" vertex="1" parent="1">
          <mxGeometry x="310" y="10" width="220" height="30" as="geometry" />
        </mxCell>
        <mxCell id="8i_bpz5KxnzMuLLQLT8q-16" value="Contact Us" style="text;strokeColor=none;align=center;fillColor=none;html=1;verticalAlign=middle;whiteSpace=wrap;rounded=0;" vertex="1" parent="1">
          <mxGeometry x="300" y="360" width="230" height="90" as="geometry" />
        </mxCell>
        <mxCell id="8i_bpz5KxnzMuLLQLT8q-17" value="" style="rounded=0;whiteSpace=wrap;html=1;" vertex="1" parent="1">
          <mxGeometry x="360" y="440" width="240" height="40" as="geometry" />
        </mxCell>
        <mxCell id="8i_bpz5KxnzMuLLQLT8q-18" value="" style="rounded=0;whiteSpace=wrap;html=1;" vertex="1" parent="1">
          <mxGeometry x="360" y="500" width="240" height="40" as="geometry" />
        </mxCell>
        <mxCell id="8i_bpz5KxnzMuLLQLT8q-19" value="" style="rounded=0;whiteSpace=wrap;html=1;" vertex="1" parent="1">
          <mxGeometry x="360" y="560" width="240" height="40" as="geometry" />
        </mxCell>
        <mxCell id="8i_bpz5KxnzMuLLQLT8q-20" value="" style="rounded=0;whiteSpace=wrap;html=1;" vertex="1" parent="1">
          <mxGeometry x="360" y="630" width="240" height="130" as="geometry" />
        </mxCell>
        <mxCell id="8i_bpz5KxnzMuLLQLT8q-21" value="Name" style="text;strokeColor=none;align=center;fillColor=none;html=1;verticalAlign=middle;whiteSpace=wrap;rounded=0;" vertex="1" parent="1">
          <mxGeometry x="260" y="445" width="60" height="30" as="geometry" />
        </mxCell>
        <mxCell id="8i_bpz5KxnzMuLLQLT8q-22" value="Email" style="text;strokeColor=none;align=center;fillColor=none;html=1;verticalAlign=middle;whiteSpace=wrap;rounded=0;" vertex="1" parent="1">
          <mxGeometry x="260" y="510" width="60" height="30" as="geometry" />
        </mxCell>
        <mxCell id="8i_bpz5KxnzMuLLQLT8q-23" value="Subject" style="text;strokeColor=none;align=center;fillColor=none;html=1;verticalAlign=middle;whiteSpace=wrap;rounded=0;" vertex="1" parent="1">
          <mxGeometry x="260" y="565" width="60" height="30" as="geometry" />
        </mxCell>
        <mxCell id="8i_bpz5KxnzMuLLQLT8q-24" value="Description" style="text;strokeColor=none;align=center;fillColor=none;html=1;verticalAlign=middle;whiteSpace=wrap;rounded=0;" vertex="1" parent="1">
          <mxGeometry x="260" y="630" width="60" height="30" as="geometry" />
        </mxCell>
        <mxCell id="8i_bpz5KxnzMuLLQLT8q-25" value="" style="rounded=0;whiteSpace=wrap;html=1;" vertex="1" parent="1">
          <mxGeometry x="390" y="780" width="90" height="30" as="geometry" />
        </mxCell>
        <mxCell id="8i_bpz5KxnzMuLLQLT8q-26" value="Submit Button" style="text;strokeColor=none;align=center;fillColor=none;html=1;verticalAlign=middle;whiteSpace=wrap;rounded=0;" vertex="1" parent="1">
          <mxGeometry x="410" y="780" width="60" height="30" as="geometry" />
        </mxCell>
      </root>
    </mxGraphModel>
  </diagram>
</mxfile>
